<?xml version="1.0" encoding="UTF-8" standalone="no"?>
<svg width="28px" height="23px" viewBox="0 0 28 23" version="1.1" xmlns="http://www.w3.org/2000/svg" xmlns:xlink="http://www.w3.org/1999/xlink">
    <!-- Generator: sketchtool 3.8.3 (29802) - http://www.bohemiancoding.com/sketch -->
    <title>98BC6EF8-574D-4396-9D92-6CBD447ADFC5</title>
    <desc>Created with sketchtool.</desc>
    <defs>
        <polygon id="path-1" points="27.6866471 22.8508764 27.6866471 0.000167272727 0.000123529412 0.000167272727 0.000123529412 22.8508764 27.6866471 22.8508764"></polygon>
    </defs>
    <g id="new-homepage" stroke="none" stroke-width="1" fill="none" fill-rule="evenodd">
        <g id="labp_updated_homepage_desktop" transform="translate(-856.000000, -4076.000000)">
            <g id="twitter_icon_white" transform="translate(856.000000, 4076.000000)">
                <mask id="mask-2" fill="white">
                    <use xlink:href="#path-1"></use>
                </mask>
                <g id="Clip-2"></g>
                <path d="M27.6867706,2.70413091 C26.6680647,3.16496727 25.5735941,3.47400364 24.4255941,3.61284 C25.5970647,2.89942182 26.4971824,1.76991273 26.9208882,0.421694545 C25.8239471,1.08242182 24.6084176,1.56374909 23.3154765,1.82218545 C22.2782412,0.700621818 20.8016529,0.000167272727 19.1698294,0.000167272727 C16.0325941,0.000167272727 13.4878882,2.58327636 13.4878882,5.76898545 C13.4878882,6.22062182 13.5385353,6.66054909 13.6361235,7.08374909 C8.91524118,6.84245818 4.72924118,4.54496727 1.92841765,1.05607636 C1.44047647,1.90749455 1.15841765,2.89858545 1.15841765,3.95700364 C1.15841765,5.95758545 2.16188824,7.72273091 3.68706471,8.75856727 C2.75565294,8.72929455 1.87900588,8.46834909 1.11271176,8.03594909 L1.11271176,8.10913091 C1.11271176,10.9030036 3.07106471,13.2347855 5.66971176,13.7658764 C5.19206471,13.8976036 4.69135882,13.9686945 4.17335882,13.9686945 C3.80688824,13.9686945 3.45071176,13.9323127 3.10359412,13.8633127 C3.82624118,16.1562036 5.92541765,17.8234945 8.41041765,17.8707491 C6.46565294,19.4163491 4.01812353,20.3396945 1.35565294,20.3396945 C0.897770588,20.3396945 0.445241176,20.3116764 0.000123529412,20.2598218 C2.51518235,21.8965855 5.5013,22.8508764 8.70771176,22.8508764 C19.1554176,22.8508764 24.8690647,14.0615309 24.8690647,6.43849455 C24.8690647,6.18842182 24.8637118,5.93834909 24.8534176,5.69204 C25.9623,4.87951273 26.9250059,3.86249455 27.6867706,2.70413091" id="Fill-1" fill="#FFFFFF" mask="url(#mask-2)"></path>
            </g>
        </g>
    </g>
</svg>