<?xml version="1.0" encoding="UTF-8" standalone="no"?>
<svg width="33px" height="18px" viewBox="0 0 33 18" version="1.1" xmlns="http://www.w3.org/2000/svg" xmlns:xlink="http://www.w3.org/1999/xlink">
    <!-- Generator: Sketch 39.1 (31720) - http://www.bohemiancoding.com/sketch -->
    <title>Group 6</title>
    <desc>Created with Sketch.</desc>
    <defs></defs>
    <g id="Page-1" stroke="none" stroke-width="1" fill="none" fill-rule="evenodd">
        <g id="Group-6">
            <path d="M27.0936894,8.16874 C26.3831059,8.16874 25.7005612,8.33554 25.0646811,8.66434 L23.837783,9.29854 L23.6158758,7.93674 C23.3218689,6.13114 22.3899791,4.47654 20.9916437,3.27774 C19.5790886,2.06634 17.7737899,1.39914 15.9086083,1.39914 C13.3494663,1.39914 10.9487435,2.65634 9.48692017,4.76194 L9.10058545,5.31834 L8.43987096,5.16674 C7.98504144,5.06254 7.53281552,5.00974 7.09601095,5.00974 C3.78582938,5.00974 1.09290215,7.69894 1.09290215,11.00474 C1.09290215,14.15354 3.55951615,16.77794 6.70827429,16.97934 L7.0305203,16.99994 L15.8957906,16.99994 L15.9086083,16.99994 L15.9216263,16.99994 L27.3330207,16.99994 L27.6470553,16.96094 C29.8521073,16.68574 31.5150089,14.80434 31.5150089,12.58434 C31.5150089,10.14954 29.5316638,8.16874 27.0936894,8.16874" id="Fill-24" fill="#FBB644"></path>
            <path d="M27.6469952,16.96094 L27.3331608,16.99994 L15.9215663,16.99994 L15.9087485,16.99994 L15.8957305,16.99994 L7.0306605,16.99994 L6.70821421,16.97934 C3.55945606,16.77794 1.09284207,14.15354 1.09284207,11.00474 C1.09284207,7.69894 3.7857693,5.00974 7.09615114,5.00974 C7.53275544,5.00974 7.98498136,5.06254 8.44001116,5.16674 L9.10052536,5.31834 L9.48686008,4.76194 C10.9486834,2.65634 13.3494062,1.39914 15.9087485,1.39914 C17.7737298,1.39914 19.5790285,2.06634 20.9917839,3.27774 C22.389919,4.47654 23.3218088,6.13114 23.6158157,7.93674 L23.8377229,9.29854 L25.064621,8.66434 C25.7005011,8.33554 26.3830458,8.16874 27.0936293,8.16874 C29.5316037,8.16874 31.5149488,10.14954 31.5149488,12.58434 C31.5149488,14.80434 29.8522475,16.68574 27.6469952,16.96094 M27.0936293,7.16874 C26.1955863,7.16874 25.3506168,7.39014 24.604384,7.77614 C23.9228407,3.59294 20.2902128,0.39914 15.9087485,0.39914 C12.9057922,0.39914 10.2547229,1.90074 8.66392107,4.19214 C8.15922252,4.07654 7.6358982,4.00974 7.09615114,4.00974 C3.22739647,4.00974 0.0914560638,7.14134 0.0914560638,11.00474 C0.0914560638,14.71554 2.9872641,17.74334 6.64432578,17.97734 L6.64432578,17.99994 L15.8957305,17.99994 L15.9087485,17.99994 L15.9215663,17.99994 L27.7711671,17.99994 L27.7711671,17.95314 C30.4456688,17.61954 32.5163348,15.34534 32.5163348,12.58434 C32.5163348,9.59374 30.0883743,7.16874 27.0936293,7.16874" id="Fill-25" fill="#FFFFFF"></path>
        </g>
    </g>
</svg>