<?xml version="1.0" encoding="UTF-8" standalone="no"?>
<svg width="99px" height="58px" viewBox="0 0 99 58" version="1.1" xmlns="http://www.w3.org/2000/svg" xmlns:xlink="http://www.w3.org/1999/xlink">
    <!-- Generator: Sketch 39.1 (31720) - http://www.bohemiancoding.com/sketch -->
    <title>Page 1</title>
    <desc>Created with Sketch.</desc>
    <defs>
        <polygon id="path-1" points="0.0755953846 15.7030568 15.6350954 15.7030568 15.6350954 0.178077729 0.0755953846 0.178077729"></polygon>
        <polygon id="path-3" points="0.244910769 15.7030568 15.8044108 15.7030568 15.8044108 0.178077729 0.244910769 0.178077729 0.244910769 15.7030568"></polygon>
        <polygon id="path-5" points="53.8679769 0.109668122 7.73220417e-05 0.109668122 7.73220417e-05 20.1007485 53.8679769 20.1007485 53.8679769 0.109668122"></polygon>
    </defs>
    <g id="Page-1" stroke="none" stroke-width="1" fill="none" fill-rule="evenodd">
        <g>
            <polygon id="Fill-1" fill="#FBB644" points="64.3503808 16.2641624 50.0596038 16.2641624 50.0596038 32.3048349 1.82883462 32.3048349 1.82883462 50.1278044 14.0700577 50.1278044 15.7611808 54.4041013 20.3545269 57.1685991 24.5432423 56.5690969 27.6652962 53.6923983 28.6238192 50.1278044 78.3776654 50.1278044 80.2566346 54.6426865 84.6618808 57.1685991 89.3587962 56.3008786 92.5958423 52.2905205 93.1946654 50.1278044 96.5040577 50.1278044 96.5040577 42.3233852 98.2903731 40.5413415 96.5040577 38.7587913 96.5040577 35.8694288 94.7177423 35.8694288 94.7177423 32.3048349 87.5724808 32.3048349 86.5751192 29.8356559 83.9995962 28.740241 69.9075808 28.740241"></polygon>
            <polygon id="Fill-2" fill="#FBB644" points="48.4517677 2.58905415 5.41621385 17.9083991 9.68133692 29.8356306 52.7168908 14.5165389"></polygon>
            <g id="Group-64" transform="translate(0.000000, 0.143607)">
                <path d="M96.5040577,42.81289 C96.1534962,42.81289 95.8694423,42.5294751 95.8694423,42.1797022 C95.8694423,41.8299293 96.1534962,41.5465144 96.5040577,41.5465144 C97.1391808,41.5465144 97.6557577,41.0310996 97.6557577,40.3976585 C97.6557577,39.7639642 97.1391808,39.2485493 96.5040577,39.2485493 C96.1534962,39.2485493 95.8694423,38.9651345 95.8694423,38.6153616 C95.8694423,38.2655886 96.1534962,37.9821738 96.5040577,37.9821738 C97.8390346,37.9821738 98.9249885,39.0656847 98.9249885,40.3976585 C98.9249885,41.729379 97.8390346,42.81289 96.5040577,42.81289" id="Fill-3" fill="#FFFFFF"></path>
                <g id="Group-7" transform="translate(77.930769, 42.043668)">
                    <mask id="mask-2" fill="white">
                        <use xlink:href="#path-1"></use>
                    </mask>
                    <g id="Clip-6"></g>
                    <path d="M7.85521846,1.44445328 C4.26532615,1.44445328 1.34482615,4.35863668 1.34482615,7.94045328 C1.34482615,11.5225231 4.26532615,14.4367066 7.85521846,14.4367066 C11.4453646,14.4367066 14.3658646,11.5225231 14.3658646,7.94045328 C14.3658646,4.35863668 11.4453646,1.44445328 7.85521846,1.44445328 M7.85521846,15.7030821 C3.56547231,15.7030821 0.0755953846,12.2208026 0.0755953846,7.94045328 C0.0755953846,3.66035721 3.56547231,0.178077729 7.85521846,0.178077729 C12.1449646,0.178077729 15.6350954,3.66035721 15.6350954,7.94045328 C15.6350954,12.2208026 12.1449646,15.7030821 7.85521846,15.7030821" id="Fill-5" fill="#FFFFFF" mask="url(#mask-2)"></path>
                </g>
                <path d="M85.7859877,47.0530192 C84.1661954,47.0530192 82.84848,48.3677703 82.84848,49.9841721 C82.84848,51.6005738 84.1661954,52.9155782 85.7859877,52.9155782 C87.4060338,52.9155782 88.7240031,51.6005738 88.7240031,49.9841721 C88.7240031,48.3677703 87.4060338,47.0530192 85.7859877,47.0530192 M85.7859877,54.1819537 C83.4663415,54.1819537 81.5792492,52.2988533 81.5792492,49.9841721 C81.5792492,47.6697441 83.4663415,45.7866437 85.7859877,45.7866437 C88.1058877,45.7866437 89.9932338,47.6697441 89.9932338,49.9841721 C89.9932338,52.2988533 88.1058877,54.1819537 85.7859877,54.1819537" id="Fill-8" fill="#FFFFFF"></path>
                <g id="Group-12" transform="translate(13.453846, 42.043668)">
                    <mask id="mask-4" fill="white">
                        <use xlink:href="#path-3"></use>
                    </mask>
                    <g id="Clip-11"></g>
                    <path d="M8.02453385,1.44445328 C4.43464154,1.44445328 1.51414154,4.35863668 1.51414154,7.94045328 C1.51414154,11.5225231 4.43464154,14.4367066 8.02453385,14.4367066 C11.61468,14.4367066 14.53518,11.5225231 14.53518,7.94045328 C14.53518,4.35863668 11.61468,1.44445328 8.02453385,1.44445328 M8.02453385,15.7030821 C3.73478769,15.7030821 0.244910769,12.2208026 0.244910769,7.94045328 C0.244910769,3.66035721 3.73478769,0.178077729 8.02453385,0.178077729 C12.31428,0.178077729 15.8044108,3.66035721 15.8044108,7.94045328 C15.8044108,12.2208026 12.31428,15.7030821 8.02453385,15.7030821" id="Fill-10" fill="#FFFFFF" mask="url(#mask-4)"></path>
                </g>
                <path d="M21.47838,47.0530192 C19.8585877,47.0530192 18.5406185,48.3677703 18.5406185,49.9841721 C18.5406185,51.6005738 19.8585877,52.9155782 21.47838,52.9155782 C23.09868,52.9155782 24.4166492,51.6005738 24.4166492,49.9841721 C24.4166492,48.3677703 23.09868,47.0530192 21.47838,47.0530192 M21.47838,54.1819537 C19.15848,54.1819537 17.2713877,52.2988533 17.2713877,49.9841721 C17.2713877,47.6697441 19.15848,45.7866437 21.47838,45.7866437 C23.7985338,45.7866437 25.68588,47.6697441 25.68588,49.9841721 C25.68588,52.2988533 23.7985338,54.1819537 21.47838,54.1819537" id="Fill-13" fill="#FFFFFF"></path>
                <path d="M50.0596292,50.6174358 C49.7090677,50.6174358 49.4250138,50.334021 49.4250138,49.984248 L49.4250138,32.7944664 L2.46347538,32.7944664 L2.46347538,49.984248 C2.46347538,50.334021 2.17942154,50.6174358 1.82886,50.6174358 C1.47829846,50.6174358 1.19424462,50.334021 1.19424462,49.984248 L1.19424462,32.1612786 C1.19424462,31.8115057 1.47829846,31.5280908 1.82886,31.5280908 L50.0596292,31.5280908 C50.4101908,31.5280908 50.6942446,31.8115057 50.6942446,32.1612786 L50.6942446,49.984248 C50.6942446,50.334021 50.4101908,50.6174358 50.0596292,50.6174358" id="Fill-15" fill="#FFFFFF"></path>
                <path d="M78.3776146,50.6174358 L29.1408531,50.6174358 C28.7902915,50.6174358 28.5062377,50.334021 28.5062377,49.984248 C28.5062377,49.6344751 28.7902915,49.3510603 29.1408531,49.3510603 L78.3776146,49.3510603 C78.7281762,49.3510603 79.01223,49.6344751 79.01223,49.984248 C79.01223,50.334021 78.7281762,50.6174358 78.3776146,50.6174358" id="Fill-17" fill="#FFFFFF"></path>
                <path d="M14.0699815,50.6174358 L1.82875846,50.6174358 C1.47819692,50.6174358 1.19414308,50.334021 1.19414308,49.984248 C1.19414308,49.6344751 1.47819692,49.3510603 1.82875846,49.3510603 L14.0699815,49.3510603 C14.4205431,49.3510603 14.7045969,49.6344751 14.7045969,49.984248 C14.7045969,50.334021 14.4205431,50.6174358 14.0699815,50.6174358" id="Fill-19" fill="#FFFFFF"></path>
                <path d="M87.5725823,32.7944157 C87.2220208,32.7944157 86.9379669,32.5110009 86.9379669,32.1612279 C86.9379669,30.5448262 85.6199977,29.2298218 83.9996977,29.2298218 L67.9231131,29.2298218 C67.5725515,29.2298218 67.2884977,28.946407 67.2884977,28.5966341 C67.2884977,28.2468611 67.5725515,27.9634463 67.9231131,27.9634463 L83.9996977,27.9634463 C86.3195977,27.9634463 88.2071977,29.8465467 88.2071977,32.1612279 C88.2071977,32.5110009 87.9231438,32.7944157 87.5725823,32.7944157" id="Fill-21" fill="#FFFFFF"></path>
                <path d="M73.2820846,32.7944157 L50.0597308,32.7944157 C49.7091692,32.7944157 49.4251154,32.5110009 49.4251154,32.1612279 C49.4251154,31.811455 49.7091692,31.5280402 50.0597308,31.5280402 L73.2820846,31.5280402 C73.6326462,31.5280402 73.9167,31.811455 73.9167,32.1612279 C73.9167,32.5110009 73.6326462,32.7944157 73.2820846,32.7944157" id="Fill-23" fill="#FFFFFF"></path>
                <path d="M94.7177169,36.3590856 C94.3671554,36.3590856 94.0831015,36.0756707 94.0831015,35.7258978 L94.0831015,32.7944917 L71.4953631,32.7944917 C71.2443092,32.7944917 71.0171169,32.6470856 70.9153246,32.4183782 L63.9378554,16.7538192 L50.6941938,16.7538192 L50.6941938,33.9436009 C50.6941938,34.2933738 50.41014,34.5767886 50.0595785,34.5767886 C49.7090169,34.5767886 49.4249631,34.2933738 49.4249631,33.9436009 L49.4249631,16.1206314 C49.4249631,15.7708585 49.7090169,15.4874437 50.0595785,15.4874437 L64.3503554,15.4874437 C64.6011554,15.4874437 64.8283477,15.6348498 64.93014,15.8633039 L71.9078631,31.5281162 L94.7177169,31.5281162 C95.0682785,31.5281162 95.3523323,31.811531 95.3523323,32.1613039 L95.3523323,35.7258978 C95.3523323,36.0756707 95.0682785,36.3590856 94.7177169,36.3590856" id="Fill-25" fill="#FFFFFF"></path>
                <path d="M73.2820846,50.6174358 C72.9315231,50.6174358 72.6474692,50.334021 72.6474692,49.984248 L72.6474692,39.2902131 C72.6474692,36.9757852 74.5348154,35.0926847 76.8544615,35.0926847 C77.2050231,35.0926847 77.4890769,35.3760996 77.4890769,35.7258725 C77.4890769,36.0756454 77.2050231,36.3590603 76.8544615,36.3590603 C75.2344154,36.3590603 73.9167,37.6740646 73.9167,39.2902131 L73.9167,49.984248 C73.9167,50.334021 73.6326462,50.6174358 73.2820846,50.6174358" id="Fill-27" fill="#FFFFFF"></path>
                <path d="M35.7688777,50.6174358 C35.4183162,50.6174358 35.1342623,50.334021 35.1342623,49.984248 L35.1342623,39.2902131 C35.1342623,37.6740646 33.8162931,36.3590603 32.1962469,36.3590603 L10.7604623,36.3590603 C9.14067,36.3590603 7.82244692,37.6740646 7.82244692,39.2902131 L7.82244692,49.984248 C7.82244692,50.334021 7.53839308,50.6174358 7.18783154,50.6174358 C6.83727,50.6174358 6.55321615,50.334021 6.55321615,49.984248 L6.55321615,39.2902131 C6.55321615,36.9757852 8.44056231,35.0926847 10.7604623,35.0926847 L32.1962469,35.0926847 C34.5161469,35.0926847 36.4034931,36.9757852 36.4034931,39.2902131 L36.4034931,49.984248 C36.4034931,50.334021 36.1194392,50.6174358 35.7688777,50.6174358" id="Fill-29" fill="#FFFFFF"></path>
                <path d="M96.5040577,50.6174358 L93.1946654,50.6174358 C92.8441038,50.6174358 92.56005,50.334021 92.56005,49.984248 C92.56005,49.6344751 92.8441038,49.3510603 93.1946654,49.3510603 L95.8694423,49.3510603 L95.8694423,36.3590603 L76.8545885,36.3590603 C76.5040269,36.3590603 76.2199731,36.0756454 76.2199731,35.7258725 C76.2199731,35.3760996 76.5040269,35.0926847 76.8545885,35.0926847 L96.5040577,35.0926847 C96.8546192,35.0926847 97.1386731,35.3760996 97.1386731,35.7258725 L97.1386731,49.984248 C97.1386731,50.334021 96.8546192,50.6174358 96.5040577,50.6174358" id="Fill-31" fill="#FFFFFF"></path>
                <path d="M53.6323108,32.7944157 C53.2817492,32.7944157 52.9976954,32.5110009 52.9976954,32.1612279 L52.9976954,16.3996646 C52.9976954,16.0498917 53.2817492,15.7664769 53.6323108,15.7664769 C53.9828723,15.7664769 54.2669262,16.0498917 54.2669262,16.3996646 L54.2669262,32.1612279 C54.2669262,32.5110009 53.9828723,32.7944157 53.6323108,32.7944157" id="Fill-33" fill="#FFFFFF"></path>
                <path d="M55.4186515,36.3588323 L50.0597054,36.3588323 C49.7091438,36.3588323 49.42509,36.0754175 49.42509,35.7256445 C49.42509,35.3758716 49.7091438,35.0924568 50.0597054,35.0924568 L55.4186515,35.0924568 C55.7692131,35.0924568 56.0532669,35.3758716 56.0532669,35.7256445 C56.0532669,36.0754175 55.7692131,36.3588323 55.4186515,36.3588323" id="Fill-35" fill="#FFFFFF"></path>
                <path d="M65.3751831,27.4474489 C64.74006,27.4474489 64.2234831,27.9628638 64.2234831,28.5965581 C64.2234831,29.2302524 64.74006,29.7456672 65.3751831,29.7456672 C66.0103062,29.7456672 66.5268831,29.2302524 66.5268831,28.5965581 C66.5268831,27.9628638 66.0103062,27.4474489 65.3751831,27.4474489 M65.3751831,31.0120428 C64.0402062,31.0120428 62.9542523,29.9285319 62.9542523,28.5965581 C62.9542523,27.2645843 64.0402062,26.1810734 65.3751831,26.1810734 C66.71016,26.1810734 67.7961138,27.2645843 67.7961138,28.5965581 C67.7961138,29.9285319 66.71016,31.0120428 65.3751831,31.0120428" id="Fill-37" fill="#FFFFFF"></path>
                <path d="M4.89978923,32.027676 C4.63908923,32.027676 4.39463538,31.8660865 4.30223538,31.606986 C4.18445077,31.2777284 4.35630462,30.9152917 4.68655846,30.7980253 L57.2852585,12.0744096 C57.6144969,11.9566367 57.9782585,12.1283572 58.0962969,12.4578681 C58.2138277,12.7871258 58.0419738,13.1495624 57.71172,13.2670821 L5.11302,31.9906978 C5.04245077,32.0157721 4.97061231,32.027676 4.89978923,32.027676" id="Fill-39" fill="#FFFFFF"></path>
                <g id="Group-43">
                    <mask id="mask-6" fill="white">
                        <use xlink:href="#path-5"></use>
                    </mask>
                    <g id="Clip-42"></g>
                    <path d="M0.634742308,20.1007485 C0.374042308,20.1007485 0.129588462,19.939159 0.0371884615,19.6800585 C-0.0805961538,19.3508009 0.0912576923,18.9883642 0.421511538,18.8710978 L53.0199577,0.146722271 C53.3489423,0.0286960699 53.7129577,0.200669869 53.8309962,0.530180786 C53.9485269,0.859438428 53.7766731,1.22187511 53.4464192,1.33939476 L0.847973077,20.0637703 C0.777403846,20.0888445 0.705565385,20.1007485 0.634742308,20.1007485" id="Fill-41" fill="#FFFFFF" mask="url(#mask-6)"></path>
                </g>
                <path d="M52.71684,15.0062969 C52.45614,15.0062969 52.21194,14.8447074 52.1192862,14.585607 L47.8541631,2.65812227 C47.7363785,2.32886463 47.9084862,1.96668122 48.2384862,1.84916157 C48.5684862,1.73062882 48.93174,1.90336245 49.0495246,2.23262009 L53.3143938,14.1601048 C53.4321785,14.4893624 53.2603246,14.8517991 52.9300708,14.9693188 C52.8595015,14.994393 52.7876631,15.0062969 52.71684,15.0062969" id="Fill-44" fill="#FFFFFF"></path>
                <path d="M47.93514,16.708255 C47.67444,16.708255 47.4299862,16.5466655 47.3375862,16.2875651 L43.0722092,4.36008035 C42.9544246,4.03082271 43.1265323,3.6686393 43.4565323,3.55111965 C43.7867862,3.43284017 44.1497862,3.60532052 44.2675708,3.93457817 L48.5326938,15.8620629 C48.6504785,16.1913205 48.4786246,16.5537572 48.1483708,16.6712769 C48.0778015,16.6963511 48.0059631,16.708255 47.93514,16.708255" id="Fill-46" fill="#FFFFFF"></path>
                <path d="M43.1534654,18.4101878 C42.8927654,18.4101878 42.6483115,18.2485983 42.5559115,17.9894978 L38.2907885,6.06226638 C38.1730038,5.73300873 38.3451115,5.37082533 38.6751115,5.25330568 C39.0051115,5.13426638 39.3683654,5.30725328 39.48615,5.63676419 L43.7510192,17.5639956 C43.8688038,17.8932533 43.69695,18.25569 43.3666962,18.3732096 C43.2961269,18.3982838 43.2242885,18.4101878 43.1534654,18.4101878" id="Fill-48" fill="#FFFFFF"></path>
                <path d="M38.3713085,20.112855 C38.1106085,20.112855 37.8661546,19.9512655 37.7737546,19.6921651 L33.5088854,7.76442707 C33.3911008,7.43516943 33.5632085,7.07298603 33.8932085,6.95546638 C34.2229546,6.8371869 34.5864623,7.00966725 34.7042469,7.33892489 L38.9688623,19.2666629 C39.0866469,19.5959205 38.9147931,19.9583572 38.5845392,20.0758769 C38.51397,20.1009511 38.4421315,20.112855 38.3713085,20.112855" id="Fill-50" fill="#FFFFFF"></path>
                <path d="M33.5901162,21.8148131 C33.3294162,21.8148131 33.0849623,21.6532236 32.9925623,21.3941231 L28.7274392,9.46714498 C28.6096546,9.13788734 28.7817623,8.77570393 29.1117623,8.65818428 C29.4420162,8.53965153 29.8050162,8.7118786 29.9228008,9.04164279 L34.18767,20.968621 C34.3054546,21.2978786 34.1336008,21.6603153 33.8033469,21.7778349 C33.7327777,21.8029092 33.6609392,21.8148131 33.5901162,21.8148131" id="Fill-52" fill="#FFFFFF"></path>
                <path d="M28.8079338,23.5169991 C28.5472338,23.5169991 28.30278,23.3554096 28.21038,23.0963092 L23.9455108,11.1688245 C23.8277262,10.8395668 23.9998338,10.4773834 24.3298338,10.3598638 C24.6598338,10.241331 25.0230877,10.4140646 25.1408723,10.7433223 L29.4054877,22.670807 C29.5232723,23.0000646 29.3514185,23.3625013 29.0211646,23.480021 C28.9505954,23.5050952 28.8787569,23.5169991 28.8079338,23.5169991" id="Fill-54" fill="#FFFFFF"></path>
                <path d="M24.0267669,25.2191852 C23.7660669,25.2191852 23.5216131,25.0575956 23.4292131,24.7984952 L19.16409,12.8712638 C19.0463054,12.5420061 19.2184131,12.1798227 19.5484131,12.0623031 C19.8786669,11.9440236 20.2414131,12.1165039 20.3594515,12.4457616 L24.6243208,24.372993 C24.7421054,24.7022507 24.5702515,25.0646873 24.2399977,25.182207 C24.1694285,25.2072812 24.09759,25.2191852 24.0267669,25.2191852" id="Fill-56" fill="#FFFFFF"></path>
                <path d="M19.2445846,26.9213712 C18.9838846,26.9213712 18.7394308,26.7597817 18.6470308,26.5006812 L14.3819077,14.5731965 C14.2641231,14.2439389 14.4362308,13.8817555 14.7662308,13.7642358 C15.0962308,13.6457031 15.4594846,13.8184367 15.5772692,14.1476943 L19.8421385,26.075179 C19.9599231,26.4044367 19.7880692,26.7668734 19.4578154,26.884393 C19.3872462,26.9094672 19.3154077,26.9213712 19.2445846,26.9213712" id="Fill-58" fill="#FFFFFF"></path>
                <path d="M14.4631638,28.6233039 C14.2024638,28.6233039 13.95801,28.4617144 13.86561,28.202614 L9.60074077,16.2751293 C9.48295615,15.9458716 9.65506385,15.5836882 9.98506385,15.4661686 C10.3150638,15.3478891 10.6783177,15.5203694 10.7961023,15.8496271 L15.0607177,27.7771118 C15.1785023,28.1063694 15.0066485,28.4688061 14.6763946,28.5863258 C14.6058254,28.6114 14.5339869,28.6233039 14.4631638,28.6233039" id="Fill-60" fill="#FFFFFF"></path>
                <path d="M9.68123538,30.32549 C9.42053538,30.32549 9.17608154,30.1639004 9.08368154,29.9048 L4.81855846,17.9775686 C4.70077385,17.6483109 4.87288154,17.2861275 5.20288154,17.1686079 C5.53338923,17.0495686 5.89613538,17.2225555 6.01392,17.5520664 L10.2787892,29.4792978 C10.3965738,29.8085555 10.22472,30.1709921 9.89446615,30.2885118 C9.82389692,30.313586 9.75205846,30.32549 9.68123538,30.32549" id="Fill-62" fill="#FFFFFF"></path>
            </g>
        </g>
    </g>
</svg>