<?xml version="1.0" encoding="UTF-8" standalone="no"?>
<svg width="51px" height="28px" viewBox="0 0 51 28" version="1.1" xmlns="http://www.w3.org/2000/svg" xmlns:xlink="http://www.w3.org/1999/xlink">
    <!-- Generator: Sketch 39.1 (31720) - http://www.bohemiancoding.com/sketch -->
    <title>Group 5</title>
    <desc>Created with Sketch.</desc>
    <defs></defs>
    <g id="Page-1" stroke="none" stroke-width="1" fill="none" fill-rule="evenodd">
        <g id="Group-5">
            <path d="M10.3406723,26.56876 L10.8651983,26.60196 L24.7850646,26.60196 L24.7994845,26.60196 L24.806294,26.60236 C24.8127028,26.60196 24.8191117,26.60196 24.8257209,26.60196 L42.7607444,26.60196 L43.284269,26.53676 C47.0268491,26.06956 49.8491554,22.87696 49.8491554,19.10936 C49.8491554,14.97776 46.4832967,11.61656 42.3461706,11.61656 C41.1390999,11.61656 39.9806966,11.89896 38.9028047,12.45656 L37.6757063,13.09176 L37.4537992,11.72936 C36.9711311,8.76556 35.4418144,6.05016 33.1474388,4.08276 C30.8288297,2.09496 27.866129,0.99996 24.8054929,0.99996 C20.6054797,0.99996 16.6658269,3.06296 14.266506,6.51756 L13.8803716,7.07336 L13.2202579,6.92256 C12.4644118,6.74956 11.7123709,6.66216 10.9851644,6.66216 C5.51058711,6.66216 1.05301746,11.08556 1.00374927,16.54116 C1.02397727,18.89496 1.82328358,21.06216 3.15692945,22.79976 C4.85708261,24.94316 7.42203271,26.38236 10.3406723,26.56876" id="Fill-22" fill="#FBB644"></path>
            <path d="M1.001386,16.63204 C1.001386,16.60164 1.00338877,16.57144 1.00378933,16.54124 C1.05305752,11.08564 5.51062717,6.66204 10.9852044,6.66204 C11.7122107,6.66204 12.4642516,6.74964 13.220298,6.92244 L13.8804116,7.07344 L14.2665461,6.51764 C16.6656667,3.06284 20.6055198,1.00004 24.8053326,1.00004 C27.8661691,1.00004 30.8288697,2.09484 33.1474789,4.08284 C35.4416542,6.05024 36.9711712,8.76564 37.4538392,11.72924 L37.6757464,13.09184 L38.9028448,12.45664 C39.9805364,11.89904 41.13914,11.61664 42.3460104,11.61664 C46.4833368,11.61664 49.8489951,14.97784 49.8489951,19.10944 C49.8489951,22.87704 47.0268891,26.06964 43.2843091,26.53664 L42.7607845,26.60204 L24.8257609,26.60204 C24.8191518,26.60204 24.8127429,26.60204 24.8061337,26.60244 L24.7995246,26.60204 L24.7851046,26.60204 L10.8650381,26.60204 L10.3407124,26.56884 C7.42207277,26.38244 4.85692238,24.94324 3.15696951,22.79984 C1.80650035,21.09724 1.001386,18.95064 1.001386,16.63204 M42.3460104,10.61664 C40.9378614,10.61664 39.6126272,10.96364 38.4422072,11.56884 C37.3735281,5.00864 31.6766431,4e-05 24.8053326,4e-05 C20.0958143,4e-05 15.9384602,2.35504 13.4436071,5.94764 C12.6523119,5.76704 11.8315759,5.66204 10.9852044,5.66204 C4.91820721,5.66204 0,10.57344 0,16.63204 C0,22.45164 4.54148579,27.20004 10.276824,27.56664 L10.276824,27.60204 L24.7851046,27.60204 C24.7917138,27.60204 24.7983229,27.60244 24.8053326,27.60244 C24.8121421,27.60244 24.8187512,27.60204 24.8257609,27.60204 L43.4084809,27.60204 L43.4084809,27.52884 C47.6030866,27.00544 50.8503812,23.43904 50.8503812,19.10944 C50.8503812,14.41884 47.0429113,10.61664 42.3460104,10.61664" id="Fill-23" fill="#FFFFFF"></path>
        </g>
    </g>
</svg>