<?xml version="1.0" encoding="UTF-8" standalone="no"?>
<svg width="95px" height="107px" viewBox="0 0 95 107" version="1.1" xmlns="http://www.w3.org/2000/svg" xmlns:xlink="http://www.w3.org/1999/xlink">
    <!-- Generator: Sketch 3.8.3 (29802) - http://www.bohemiancoding.com/sketch -->
    <title>Page 1</title>
    <desc>Created with Sketch.</desc>
    <defs></defs>
    <g id="new-homepage" stroke="none" stroke-width="1" fill="none" fill-rule="evenodd">
        <g id="Page-1">
            <polygon id="Fill-1" fill="#FDB743" points="60.6520681 83.5380687 60.9786681 83.5380687 60.9786681 80.2591845 60.6520681 80.2591845"></polygon>
            <path d="M91.8564477,98.2999356 L93.673236,98.2999356 L93.673236,96.4951717 L91.8564477,96.4951717 L91.8564477,98.2999356 Z M94.8289538,95.347103 L94.8289538,99.4480043 L91.2785888,99.4480043 L91.2785888,98.2999356 L90.7007299,98.2999356 L90.7007299,95.9211373 L91.8564477,95.9211373 L91.8564477,95.347103 L94.8289538,95.347103 Z" id="Fill-3" fill="#FFFFFF"></path>
            <path d="M91.8564246,88.0499097 C92.7139672,88.2978925 93.3426776,89.0877637 93.3426776,90.0176994 C93.3426776,90.947635 92.7139672,91.7375062 91.8564246,91.9854891 L91.8564246,90.713429 C92.0575195,90.5481071 92.1869599,90.295532 92.1869599,90.0176994 C92.1869599,89.7375706 92.0575195,89.4872916 91.8564246,89.3219697 L91.8564246,88.0499097 Z" id="Fill-4" fill="#FFFFFF"></path>
            <polygon id="Fill-5" fill="#FFFFFF" points="90.7007299 95.9211373 91.8564477 95.9211373 91.8564477 95.347103 90.7007299 95.347103"></polygon>
            <path d="M91.8564246,91.985535 L91.8564246,95.34708 L90.7007068,95.34708 L90.7007068,84.4679813 L76.281972,77.306329 L76.4183467,77.306329 L76.4183467,76.1582603 L76.7511934,76.0227882 L76.8713881,76.3143976 L91.8564246,83.7584749 L91.8564246,88.0499556 C91.6738212,87.9948483 91.4796606,87.9672946 91.2785657,87.9672946 L91.2785657,89.1153633 C91.4958406,89.1153633 91.699247,89.193432 91.8564246,89.3220157 L91.8564246,90.7134749 C91.699247,90.8420586 91.4958406,90.9201273 91.2785657,90.9201273 L91.2785657,92.0681959 C91.4796606,92.0681959 91.6738212,92.0406423 91.8564246,91.985535" id="Fill-6" fill="#FFFFFF"></path>
            <path d="M91.8564246,90.7134519 L91.8564246,91.985512 C91.6738212,92.0406193 91.4796606,92.068173 91.2785657,92.068173 L91.2785657,90.9201043 C91.4958406,90.9201043 91.699247,90.8420356 91.8564246,90.7134519" id="Fill-7" fill="#FFFFFF"></path>
            <path d="M91.8564246,88.0499097 L91.8564246,89.3219697 C91.699247,89.1933861 91.4958406,89.1153174 91.2785657,89.1153174 L91.2785657,87.9672487 C91.4796606,87.9672487 91.6738212,87.9948024 91.8564246,88.0499097" id="Fill-8" fill="#FFFFFF"></path>
            <polygon id="Fill-9" fill="#FFFFFF" points="90.7007299 99.4480043 91.2785888 99.4480043 91.2785888 98.2999356 90.7007299 98.2999356"></polygon>
            <path d="M90.7007068,98.2999127 L90.7007068,99.4479813 L87.3768625,99.4479813 C87.3907311,99.2596981 87.3976655,99.0668225 87.3976655,98.873947 C87.3976655,98.6810715 87.3907311,98.4881959 87.3768625,98.2999127 L90.7007068,98.2999127 Z" id="Fill-10" fill="#FFFFFF"></path>
            <path d="M90.7007068,95.9211373 L90.7007068,98.2999356 L87.3768625,98.2999356 C87.0786873,94.1806652 83.6115341,90.9201502 79.3908528,90.9201502 C75.1701715,90.9201502 71.7030182,94.1806652 71.4048431,98.2999356 L65.1084927,98.2999356 L65.1084927,58.1152361 L68.0786873,58.1152361 L68.825281,59.92 L68.2451107,59.92 C67.5170085,59.92 66.925281,60.5101073 66.925281,61.2333906 L66.925281,75.9929614 C66.925281,76.7185408 67.5170085,77.3063519 68.2451107,77.3063519 L76.281972,77.3063519 L90.7007068,84.4680043 L90.7007068,95.347103 L90.7007068,95.9211373 Z" id="Fill-11" fill="#FDB743"></path>
            <path d="M87.3768856,98.2999127 C87.3907543,98.4881959 87.3976886,98.6810715 87.3976886,98.873947 C87.3976886,99.0668225 87.3907543,99.2596981 87.3768856,99.4479813 L86.8198297,99.4479813 L86.8198297,98.873947 L86.8198297,98.2999127 L87.3768856,98.2999127 Z" id="Fill-12" fill="#FFFFFF"></path>
            <path d="M87.3768856,98.2999127 L86.8198297,98.2999127 L86.8198297,98.873947 L86.2419708,98.873947 C86.2419708,95.1197624 83.170073,92.0681959 79.3908759,92.0681959 C75.6116788,92.0681959 72.539781,95.1197624 72.539781,98.873947 L71.9619221,98.873947 L71.9619221,98.2999127 L71.4048662,98.2999127 C71.7030414,94.1806423 75.1701946,90.9201273 79.3908759,90.9201273 C83.6115572,90.9201273 87.0787105,94.1806423 87.3768856,98.2999127" id="Fill-13" fill="#FFFFFF"></path>
            <path d="M86.8198066,99.4479813 L87.3768625,99.4479813 C87.0786873,103.567252 83.6115341,106.827767 79.3908528,106.827767 C75.1701715,106.827767 71.7030182,103.567252 71.4048431,99.4479813 L71.961899,99.4479813 L71.961899,98.873947 L72.5397579,98.873947 C72.5397579,102.628132 75.6116557,105.679698 79.3908528,105.679698 C83.1700499,105.679698 86.2419477,102.628132 86.2419477,98.873947 L86.8198066,98.873947 L86.8198066,99.4479813 Z" id="Fill-14" fill="#FFFFFF"></path>
            <path d="M82.941264,98.873947 C82.941264,96.9291187 81.3486849,95.34708 79.390899,95.34708 C77.4331131,95.34708 75.8405341,96.9291187 75.8405341,98.873947 C75.8405341,100.818775 77.4331131,102.400814 79.390899,102.400814 C81.3486849,102.400814 82.941264,100.818775 82.941264,98.873947 M79.390899,92.0681959 C83.1700961,92.0681959 86.2419939,95.1197624 86.2419939,98.873947 C86.2419939,102.628132 83.1700961,105.679698 79.390899,105.679698 C75.6117019,105.679698 72.5398041,102.628132 72.5398041,98.873947 C72.5398041,95.1197624 75.6117019,92.0681959 79.390899,92.0681959" id="Fill-15" fill="#FDB743"></path>
            <path d="M81.7855462,98.873947 C81.7855462,97.5628526 80.7107287,96.4951487 79.390899,96.4951487 C78.0710693,96.4951487 76.9962518,97.5628526 76.9962518,98.873947 C76.9962518,100.185041 78.0710693,101.252745 79.390899,101.252745 C80.7107287,101.252745 81.7855462,100.185041 81.7855462,98.873947 M79.390899,95.34708 C81.3486849,95.34708 82.941264,96.9291187 82.941264,98.873947 C82.941264,100.818775 81.3486849,102.400814 79.390899,102.400814 C77.4331131,102.400814 75.8405341,100.818775 75.8405341,98.873947 C75.8405341,96.9291187 77.4331131,95.34708 79.390899,95.34708" id="Fill-16" fill="#FFFFFF"></path>
            <path d="M79.3908066,96.4951717 C80.7106363,96.4951717 81.7854538,97.5628755 81.7854538,98.87397 C81.7854538,100.185064 80.7106363,101.252768 79.3908066,101.252768 C78.0709769,101.252768 76.9961594,100.185064 76.9961594,98.87397 C76.9961594,97.5628755 78.0709769,96.4951717 79.3908066,96.4951717" id="Fill-17" fill="#FDB743"></path>
            <polygon id="Fill-18" fill="#FFFFFF" points="76.7511703 76.0227652 76.4183236 76.1582373 75.5561582 76.1582373 69.3014136 61.0680227 69.6874234 61.0680227 69.6874234 59.9199541 70.0179586 59.784482"></polygon>
            <polygon id="Fill-19" fill="#FFFFFF" points="76.4183467 76.1582144 76.4183467 77.306283 76.281972 77.306283 75.9676168 77.1501457 75.5561813 76.1582144"></polygon>
            <path d="M76.2819951,77.306283 L68.2451338,77.306283 C67.5170316,77.306283 66.9253041,76.7184719 66.9253041,75.9928925 L66.9253041,61.2333217 C66.9253041,60.5100384 67.5170316,59.9199311 68.2451338,59.9199311 L68.8253041,59.9199311 L69.3014599,61.0679998 L68.2451338,61.0679998 C68.1549878,61.0679998 68.0810219,61.1414762 68.0810219,61.2333217 L68.0810219,75.9928925 C68.0810219,76.084738 68.1549878,76.1582144 68.2451338,76.1582144 L75.5562044,76.1582144 L75.9676399,77.1501457 L76.2819951,77.306283 Z" id="Fill-20" fill="#FFFFFF"></path>
            <path d="M69.3014136,61.0680687 L75.5561582,76.1582833 L68.2450876,76.1582833 C68.1549416,76.1582833 68.0809757,76.0848069 68.0809757,75.9929614 L68.0809757,61.2333906 C68.0809757,61.1415451 68.1549416,61.0680687 68.2450876,61.0680687 L69.3014136,61.0680687 Z" id="Fill-21" fill="#FDB743"></path>
            <path d="M71.9619453,98.873947 L71.9619453,99.4479813 L71.4048893,99.4479813 C71.3910207,99.2596981 71.3840864,99.0668225 71.3840864,98.873947 C71.3840864,98.6810715 71.3910207,98.4881959 71.4048893,98.2999127 L71.9619453,98.2999127 L71.9619453,98.873947 Z" id="Fill-22" fill="#FFFFFF"></path>
            <path d="M65.1084465,98.2999127 L71.4047968,98.2999127 C71.3909282,98.4881959 71.3839939,98.6810715 71.3839939,98.873947 C71.3839939,99.0668225 71.3909282,99.2596981 71.4047968,99.4479813 L63.9527287,99.4479813 L63.9527287,98.873947 L65.1084465,98.873947 L65.1084465,98.2999127 Z" id="Fill-23" fill="#FFFFFF"></path>
            <path d="M66.4028735,51.0638212 L70.0179586,59.7843212 L69.6874234,59.920023 L68.8252579,59.920023 L68.0786642,58.115259 L68.3814623,58.115259 L68.3814623,56.9671903 L67.6025085,56.9671903 L65.630854,52.2118899 L35.3071314,52.2118899 L35.3071314,51.7205165 C37.311146,51.7205165 39.264309,51.4931989 41.1388832,51.0638212 L66.4028735,51.0638212 Z" id="Fill-24" fill="#FFFFFF"></path>
            <polygon id="Fill-25" fill="#FFFFFF" points="69.6874002 59.92 69.6874002 61.0680687 69.3013905 61.0680687 68.8252348 59.92"></polygon>
            <polygon id="Fill-26" fill="#FFFFFF" points="68.3814623 56.9671903 68.3814623 58.115259 68.0786642 58.115259 67.6025085 56.9671903"></polygon>
            <polygon id="Fill-27" fill="#FFFFFF" points="68.0786642 58.115259 65.1084696 58.115259 65.1084696 57.5412247 63.9527518 57.5412247 63.9527518 58.115259 48.764309 58.115259 48.764309 57.5412247 48.764309 56.9671903 67.6025085 56.9671903"></polygon>
            <polygon id="Fill-28" fill="#FDB743" points="65.6308771 52.2118899 67.6025316 56.9671903 48.7643321 56.9671903 4.18367518 56.9671903 4.18367518 52.2118899 35.3071545 52.2118899"></polygon>
            <polygon id="Fill-29" fill="#FFFFFF" points="63.9527981 98.87397 65.1085158 98.87397 65.1085158 98.2999356 63.9527981 98.2999356"></polygon>
            <polygon id="Fill-30" fill="#FFFFFF" points="63.9527981 98.2999356 65.1085158 98.2999356 65.1085158 58.1152361 63.9527981 58.1152361"></polygon>
            <polygon id="Fill-31" fill="#FFFFFF" points="63.9527981 58.1152361 65.1085158 58.1152361 65.1085158 57.5412017 63.9527981 57.5412017"></polygon>
            <polygon id="Fill-32" fill="#FFFFFF" points="63.9527287 98.873947 63.9527287 99.4479813 47.6085681 99.4479813 47.6085681 98.873947 48.7642859 98.873947 48.7642859 98.2999127 63.9527287 98.2999127"></polygon>
            <path d="M62.1359635,75.9929614 L62.1359635,61.2333906 C62.1359635,60.5101073 61.544236,59.92 60.8161338,59.92 L51.900927,59.92 C51.1728248,59.92 50.5787859,60.5101073 50.5787859,61.2333906 L50.5787859,75.9929614 C50.5787859,76.7185408 51.1728248,77.3063519 51.900927,77.3063519 L60.8161338,77.3063519 C61.544236,77.3063519 62.1359635,76.7185408 62.1359635,75.9929614 L62.1359635,75.9929614 Z M59.4963041,84.6861373 L62.1359635,84.6861373 L62.1359635,79.1111159 L59.4963041,79.1111159 L59.4963041,84.6861373 Z M48.764309,98.2999356 L63.9527518,98.2999356 L63.9527518,58.1152361 L48.764309,58.1152361 L48.764309,98.2999356 Z" id="Fill-33" fill="#FDB743"></path>
            <path d="M60.6520681,83.5380687 L60.980292,83.5380687 L60.980292,80.2591845 L60.6520681,80.2591845 L60.6520681,83.5380687 Z M59.4963504,84.6861373 L62.1360097,84.6861373 L62.1360097,79.1111159 L59.4963504,79.1111159 L59.4963504,84.6861373 Z" id="Fill-34" fill="#FFFFFF"></path>
            <path d="M60.9802457,75.9929614 L60.9802457,61.2333906 C60.9802457,61.1415451 60.9062798,61.0680687 60.8161338,61.0680687 L51.900927,61.0680687 C51.8084696,61.0680687 51.7345036,61.1415451 51.7345036,61.2333906 L51.7345036,75.9929614 C51.7345036,76.0848069 51.8084696,76.1582833 51.900927,76.1582833 L60.8161338,76.1582833 C60.9062798,76.1582833 60.9802457,76.0848069 60.9802457,75.9929614 M62.1359635,61.2333906 L62.1359635,75.9929614 C62.1359635,76.7185408 61.544236,77.3063519 60.8161338,77.3063519 L51.900927,77.3063519 C51.1728248,77.3063519 50.5787859,76.7185408 50.5787859,75.9929614 L50.5787859,61.2333906 C50.5787859,60.5101073 51.1728248,59.92 51.900927,59.92 L60.8161338,59.92 C61.544236,59.92 62.1359635,60.5101073 62.1359635,61.2333906" id="Fill-35" fill="#FFFFFF"></path>
            <path d="M60.9802457,61.2333217 L60.9802457,75.9928925 C60.9802457,76.084738 60.9062798,76.1582144 60.8161338,76.1582144 L51.900927,76.1582144 C51.8084696,76.1582144 51.7345036,76.084738 51.7345036,75.9928925 L51.7345036,61.2333217 C51.7345036,61.1414762 51.8084696,61.0679998 51.900927,61.0679998 L60.8161338,61.0679998 C60.9062798,61.0679998 60.9802457,61.1414762 60.9802457,61.2333217" id="Fill-36" fill="#FDB743"></path>
            <path d="M56.6879562,28.1850858 L56.6879562,30.4812232 C56.6879562,30.7980901 56.4290754,31.0552575 56.1100973,31.0552575 C55.7888078,31.0552575 55.5322384,30.7980901 55.5322384,30.4812232 L55.5322384,28.1850858 C55.5322384,27.8682189 55.7888078,27.6110515 56.1100973,27.6110515 C56.4290754,27.6110515 56.6879562,27.8682189 56.6879562,28.1850858" id="Fill-37" fill="#FFFFFF"></path>
            <path d="M55.8396825,20.2198084 C56.0662032,20.4425337 56.0662032,20.8076195 55.8396825,21.0303448 C55.7287336,21.1428556 55.5808017,21.200259 55.4328698,21.200259 C55.284938,21.200259 55.1370061,21.1428556 55.0237457,21.0303448 L53.3895608,19.4069758 C53.1630401,19.1842504 53.1630401,18.8191646 53.3895608,18.5964393 C53.6137701,18.3714178 53.9812883,18.3714178 54.2054976,18.5964393 L55.8396825,20.2198084 Z" id="Fill-38" fill="#FFFFFF"></path>
            <path d="M55.8396825,23.8614363 C56.0662032,24.0841616 56.0662032,24.4469513 55.8396825,24.6719727 L54.2054976,26.2953418 C54.0922372,26.4078526 53.9466168,26.4629599 53.7986849,26.4629599 C53.650753,26.4629599 53.5028212,26.4078526 53.3895608,26.2953418 C53.1630401,26.0726165 53.1630401,25.7075307 53.3895608,25.4848054 L55.0237457,23.8614363 C55.247955,23.6364148 55.6154732,23.6364148 55.8396825,23.8614363" id="Fill-39" fill="#FFFFFF"></path>
            <path d="M54.0181788,35.0711328 C54.3140426,35.1928281 54.4527287,35.5280642 54.3325341,35.8196736 C54.2400766,36.0423989 54.0251131,36.1755749 53.796281,36.1755749 C53.7246265,36.1755749 53.6483491,36.1617981 53.5766946,36.1319483 L51.4409282,35.2548238 C51.1450645,35.1331285 51.0063783,34.7978925 51.126573,34.5039869 C51.2490791,34.2123775 51.5865487,34.0723131 51.8824124,34.1940084 L54.0181788,35.0711328 Z" id="Fill-40" fill="#FFFFFF"></path>
            <path d="M60.1551095,25.8889485 C60.1551095,12.2797425 49.007056,1.2054721 35.3071776,1.2054721 C21.6049878,1.2054721 10.4592457,12.2797425 10.4592457,25.8889485 C10.4592457,39.5004506 21.6049878,50.5724249 35.3071776,50.5724249 C49.007056,50.5724249 60.1551095,39.5004506 60.1551095,25.8889485 M35.3071776,0.0574034335 C49.6450122,0.0574034335 61.3108273,11.6460086 61.3108273,25.8889485 C61.3108273,38.1434335 52.679927,48.4278326 41.1389294,51.0637983 L29.4731144,51.0637983 C17.9344282,48.4278326 9.30352798,38.1434335 9.30352798,25.8889485 C9.30352798,11.6460086 20.9670316,0.0574034335 35.3071776,0.0574034335" id="Fill-41" fill="#FFFFFF"></path>
            <path d="M53.121365,11.5380901 C53.4403431,11.5380901 53.6992238,11.7952575 53.6992238,12.1121245 C53.6992238,12.4289914 53.4403431,12.6861588 53.121365,12.6861588 L50.8099294,12.6861588 C50.4909513,12.6861588 50.2320706,12.4289914 50.2320706,12.1121245 C50.2320706,11.7952575 50.4909513,11.5380901 50.8099294,11.5380901 L53.121365,11.5380901 Z" id="Fill-42" fill="#FFFFFF"></path>
            <path d="M16.4921156,18.2795264 C16.6354246,17.9948054 16.5198528,17.6503848 16.2332348,17.5080242 C15.9489282,17.3656637 15.6022129,17.4804706 15.4589039,17.7651916 L14.4233808,19.8179384 C14.2800718,20.1003633 14.3956436,20.4447839 14.6799501,20.5871444 C14.7631618,20.6284749 14.8509964,20.6491401 14.9388309,20.6491401 C15.151483,20.6491401 15.3548893,20.5320371 15.4565925,20.3322732 L16.4921156,18.2795264 Z M16.8781253,28.0059642 C17.1809234,27.9072303 17.3450353,27.5811788 17.2456436,27.2803848 C17.1439404,26.9795908 16.818028,26.816565 16.5152299,26.9175951 L14.3216776,27.6408783 C14.0188796,27.7419084 13.8547676,28.0656637 13.9541594,28.3664577 C14.0350596,28.6075521 14.2615803,28.7590972 14.504281,28.7590972 C14.5643783,28.7590972 14.6244757,28.7499127 14.684573,28.7315436 L16.8781253,28.0059642 Z M19.3236241,37.9092045 C19.6241107,37.8012861 19.7789769,37.4706423 19.668028,37.1744406 L18.8752056,35.0160715 C18.7665681,34.7198697 18.4337214,34.5660285 18.1355462,34.673947 C17.8350596,34.7841616 17.6801934,35.1125092 17.7911423,35.4110071 L18.5839647,37.56708 C18.6694878,37.8012861 18.8913856,37.9436466 19.1271521,37.9436466 C19.1918723,37.9436466 19.2589039,37.934462 19.3236241,37.9092045 L19.3236241,37.9092045 Z M20.0147433,23.6662646 C20.1580523,23.3838397 20.0424805,23.037123 19.758174,22.8947624 L17.6917506,21.8660929 C17.407444,21.7237324 17.0584173,21.8385393 16.9174197,22.1232603 C16.7741107,22.4056852 16.8896825,22.7501058 17.1739891,22.8924663 L19.2404124,23.9211358 C19.3236241,23.9624663 19.4114586,23.9831315 19.4992932,23.9831315 C19.7096338,23.9831315 19.9153516,23.8660285 20.0147433,23.6662646 L20.0147433,23.6662646 Z M21.4478333,30.9013933 C21.7205827,30.7383676 21.8107287,30.3847624 21.6466168,30.1138182 C21.4825049,29.8405779 21.1288552,29.7533247 20.8537944,29.9140543 L18.8705827,31.0919727 C18.5955219,31.2549985 18.5076873,31.6086036 18.6717993,31.8795479 C18.7781253,32.0586466 18.9699745,32.1596766 19.1664465,32.1596766 C19.2681496,32.1596766 19.3698528,32.132123 19.4623102,32.0793118 L21.4478333,30.9013933 Z M21.5009964,12.6585822 C21.8037944,12.5575521 21.9679063,12.2337968 21.8685146,11.9330028 C21.7668114,11.6322088 21.440899,11.469183 21.138101,11.567917 L18.9445487,12.2912002 C18.6417506,12.3922303 18.4776387,12.7159856 18.5770304,13.0167796 C18.6579307,13.257874 18.8844513,13.4117152 19.1271521,13.4117152 C19.1872494,13.4117152 19.2473467,13.4025307 19.307444,13.3818655 L21.5009964,12.6585822 Z M24.327882,35.0734749 L24.327882,32.7773376 C24.327882,32.4604706 24.0690012,32.2033032 23.7500231,32.2033032 C23.4287336,32.2033032 23.1721642,32.4604706 23.1721642,32.7773376 L23.1721642,35.0734749 C23.1721642,35.3903418 23.4287336,35.6475092 23.7500231,35.6475092 C24.0690012,35.6475092 24.327882,35.3903418 24.327882,35.0734749 L24.327882,35.0734749 Z M25.7910207,40.7449341 C26.0175414,40.5199127 26.0175414,40.157123 25.7910207,39.9343976 C25.5668114,39.7093762 25.1992932,39.7093762 24.9750839,39.9343976 L23.340899,41.5577667 C23.1143783,41.7804921 23.1143783,42.1455779 23.340899,42.3683032 C23.4541594,42.4808139 23.6020912,42.5359212 23.7500231,42.5359212 C23.897955,42.5359212 24.0435754,42.4808139 24.1568358,42.3683032 L25.7910207,40.7449341 Z M26.3318966,17.9925092 C26.4752056,17.7077882 26.3596338,17.3633676 26.0753273,17.2210071 L24.0089039,16.1923376 C23.7222859,16.049977 23.3755706,16.1647839 23.2322616,16.4472088 C23.0889526,16.7319298 23.2045243,17.0763504 23.4911423,17.2187109 L25.5575657,18.2473805 C25.6384659,18.2887109 25.7286119,18.3093762 25.814135,18.3093762 C26.0267871,18.3093762 26.2301934,18.1922732 26.3318966,17.9925092 L26.3318966,17.9925092 Z M26.9721642,14.9547195 C27.2749623,14.8536895 27.4390742,14.5299341 27.337371,14.2291401 L26.6092689,12.0501058 C26.5075657,11.7493118 26.1816533,11.5862861 25.8788552,11.68502 C25.5760572,11.78605 25.4119453,12.1098054 25.511337,12.4105994 L26.2417506,14.5896337 C26.3203394,14.8307281 26.5468601,14.9822732 26.7895608,14.9822732 C26.8496582,14.9822732 26.9097555,14.9730886 26.9721642,14.9547195 L26.9721642,14.9547195 Z M28.5531861,7.34072811 C28.8559842,7.24199421 29.0200961,6.9159427 28.9207044,6.61514871 C28.8190012,6.31435472 28.4930888,6.15132897 28.1902908,6.25235901 L25.9967384,6.97564227 C25.6939404,7.07667232 25.5298285,7.40042768 25.6292202,7.70122167 C25.7101204,7.94231609 25.9366411,8.09386116 26.1793418,8.09386116 C26.2394392,8.09386116 26.2995365,8.08467661 26.3596338,8.06630751 L28.5531861,7.34072811 Z M29.7389526,42.0376594 C29.8799501,41.7552345 29.7666898,41.4085178 29.4800718,41.2661573 C29.1957652,41.1260929 28.8467384,41.2408998 28.7057409,41.5233247 L27.6679063,43.5760715 C27.5269088,43.8584964 27.6424805,44.2052131 27.9267871,44.3452775 C28.0099988,44.3889041 28.0978333,44.4072732 28.1856679,44.4072732 C28.3960085,44.4072732 28.6017263,44.2924663 28.7034294,44.0904062 L29.7389526,42.0376594 Z M32.3277603,11.2074234 C32.6305584,11.1063933 32.7923589,10.782638 32.6929672,10.4795479 C32.5935754,10.18105 32.2653516,10.0157281 31.9625535,10.1167582 L29.7690012,10.8400414 C29.4662032,10.9410715 29.3020912,11.2648268 29.4037944,11.5656208 C29.4823832,11.8067152 29.7089039,11.9605564 29.9516046,11.9605564 C30.0117019,11.9605564 30.0717993,11.9490758 30.134208,11.9307067 L32.3277603,11.2074234 Z M32.7253273,39.3993976 C32.9518479,39.1766723 32.9518479,38.8115865 32.7253273,38.5888612 L31.0911423,36.9654921 C30.8669331,36.7404706 30.4994148,36.7404706 30.2752056,36.9654921 C30.0486849,37.1882174 30.0486849,37.5533032 30.2752056,37.7760285 L31.9093905,39.3993976 C32.0226509,39.5119084 32.1705827,39.5693118 32.3185146,39.5693118 C32.4664465,39.5693118 32.6143783,39.5119084 32.7253273,39.3993976 L32.7253273,39.3993976 Z M33.2615803,47.4243976 C33.4048893,47.1419727 33.2893175,46.795256 33.0050109,46.6551916 L30.9385876,45.6265221 C30.6519696,45.4841616 30.3052543,45.5966723 30.1619453,45.8813933 C30.0186363,46.1638182 30.134208,46.510535 30.420826,46.6505994 L32.4872494,47.681565 C32.5681496,47.7228955 32.6582956,47.7412646 32.7438187,47.7412646 C32.9564708,47.7412646 33.1598771,47.6264577 33.2615803,47.4243976 L33.2615803,47.4243976 Z M35.8850596,7.51982682 L35.8850596,5.22368948 C35.8850596,4.90682253 35.6261788,4.64965515 35.3072007,4.64965515 C34.9859112,4.64965515 34.7293418,4.90682253 34.7293418,5.22368948 L34.7293418,7.51982682 C34.7293418,7.83669378 34.9859112,8.09386116 35.3072007,8.09386116 C35.6261788,8.09386116 35.8850596,7.83669378 35.8850596,7.51982682 L35.8850596,7.51982682 Z M38.1964951,39.6657496 L38.1964951,37.3696122 C38.1964951,37.0527453 37.9376144,36.7955779 37.6186363,36.7955779 C37.2973467,36.7955779 37.0407774,37.0527453 37.0407774,37.3696122 L37.0407774,39.6657496 C37.0407774,39.9826165 37.2973467,40.2397839 37.6186363,40.2397839 C37.9376144,40.2397839 38.1964951,39.9826165 38.1964951,39.6657496 L38.1964951,39.6657496 Z M39.6596338,46.2878097 C39.8861545,46.0650843 39.8861545,45.6999985 39.6596338,45.4772732 L38.0254489,43.8539041 C37.8012397,43.6288826 37.4337214,43.6288826 37.2095122,43.8539041 C36.9829915,44.0766294 36.9829915,44.4417152 37.2095122,44.6644406 L38.8436971,46.2878097 C38.9569574,46.4003204 39.1048893,46.4577238 39.2528212,46.4577238 C39.400753,46.4577238 39.5486849,46.4003204 39.6596338,46.2878097 L39.6596338,46.2878097 Z M40.3368844,10.2223805 C40.5634051,9.99735901 40.5634051,9.63456931 40.3368844,9.41184399 C40.1126752,9.18682253 39.7451569,9.18682253 39.5209477,9.41184399 L37.8867628,11.0352131 C37.6602421,11.2579384 37.6602421,11.6230242 37.8867628,11.8457496 C38.0000231,11.9582603 38.147955,12.0156637 38.2958869,12.0156637 C38.4438187,12.0156637 38.5894392,11.9582603 38.7026995,11.8457496 L40.3368844,10.2223805 Z M45.1308017,25.8889255 C45.1308017,20.5090758 40.7228942,16.1303418 35.3072007,16.1303418 C29.8891959,16.1303418 25.4835998,20.5090758 25.4835998,25.8889255 C25.4835998,31.2710715 29.8891959,35.6475092 35.3072007,35.6475092 C40.7228942,35.6475092 45.1308017,31.2710715 45.1308017,25.8889255 L45.1308017,25.8889255 Z M44.2825049,39.3993976 C44.5090255,39.1766723 44.5090255,38.8115865 44.2825049,38.5888612 L42.64832,36.9654921 C42.4241107,36.7404706 42.0565925,36.7404706 41.8323832,36.9654921 C41.6058625,37.1882174 41.6058625,37.5533032 41.8323832,37.7760285 L43.4665681,39.3993976 C43.5798285,39.5119084 43.7277603,39.5693118 43.8756922,39.5693118 C44.0236241,39.5693118 44.171556,39.5119084 44.2825049,39.3993976 L44.2825049,39.3993976 Z M44.9597555,10.2223805 C45.1862762,9.99965515 45.1862762,9.63456931 44.9597555,9.41184399 L43.3255706,7.78847489 C43.1013613,7.56345343 42.7338431,7.56345343 42.5096338,7.78847489 C42.2831131,8.01120021 42.2831131,8.37398991 42.5096338,8.59901137 L44.1438187,10.2223805 C44.2570791,10.3348912 44.4050109,10.3899985 44.5529428,10.3899985 C44.7008747,10.3899985 44.8464951,10.3348912 44.9597555,10.2223805 L44.9597555,10.2223805 Z M47.271191,44.6644406 C47.4977117,44.4417152 47.4977117,44.0766294 47.271191,43.8539041 L45.6370061,42.230535 C45.4127968,42.0055135 45.0452786,42.0055135 44.8210693,42.230535 C44.5945487,42.4532603 44.5945487,42.81605 44.8210693,43.0410715 L46.4552543,44.6644406 C46.5685146,44.7769513 46.7164465,44.8320586 46.8643783,44.8320586 C47.0123102,44.8320586 47.1579307,44.7769513 47.271191,44.6644406 L47.271191,44.6644406 Z M48.9053759,36.1526594 C49.1318966,35.927638 49.1318966,35.5648483 48.9053759,35.342123 C48.6811667,35.1171015 48.3136484,35.1171015 48.0894392,35.342123 L46.4552543,36.9654921 C46.2287336,37.1882174 46.2287336,37.5533032 46.4552543,37.7760285 C46.5685146,37.8885393 46.7164465,37.9436466 46.8643783,37.9436466 C47.0123102,37.9436466 47.1579307,37.8885393 47.271191,37.7760285 L48.9053759,36.1526594 Z M48.9053759,17.1107925 C49.1318966,16.885771 49.1318966,16.5229813 48.9053759,16.300256 L47.271191,14.6768869 C47.0469818,14.4518655 46.6794635,14.4518655 46.4552543,14.6768869 C46.2287336,14.8996122 46.2287336,15.2624019 46.4552543,15.4874234 L48.0894392,17.1107925 C48.2026995,17.2233032 48.3506314,17.2784105 48.4985633,17.2784105 C48.6464951,17.2784105 48.794427,17.2233032 48.9053759,17.1107925 L48.9053759,17.1107925 Z M49.5826265,26.2953418 C49.8091472,26.0703204 49.8091472,25.7075307 49.5826265,25.4848054 C49.3584173,25.2597839 48.990899,25.2597839 48.7666898,25.4848054 L47.1325049,27.1081745 C46.9059842,27.3308998 46.9059842,27.6959856 47.1325049,27.9187109 C47.2457652,28.0312217 47.3936971,28.0886251 47.541629,28.0886251 C47.6895608,28.0886251 47.8351813,28.0312217 47.9484416,27.9187109 L49.5826265,26.2953418 Z M50.5418723,20.0796981 C50.7660815,19.8546766 50.7660815,19.4918869 50.5418723,19.2691616 C50.3153516,19.0441401 49.9501448,19.0441401 49.7236241,19.2691616 L48.0894392,20.8925307 C47.8629185,21.115256 47.8629185,21.4803418 48.0894392,21.7030672 C48.2026995,21.8155779 48.3506314,21.8706852 48.4985633,21.8706852 C48.6464951,21.8706852 48.794427,21.8155779 48.9053759,21.7030672 L50.5418723,20.0796981 Z M50.7383443,31.6338612 C51.0318966,31.5121659 51.1728942,31.1769298 51.0503881,30.8830242 C50.927882,30.5914148 50.5904124,30.4513504 50.2945487,30.5730457 L48.1587822,31.4524663 C47.8652299,31.5741616 47.7242324,31.9093976 47.8467384,32.2033032 C47.9391959,32.4237324 48.1541594,32.5569084 48.38068,32.5569084 C48.454646,32.5569084 48.5309234,32.5431315 48.6025779,32.5132818 L50.7383443,31.6338612 Z M51.5196095,40.375256 C51.8131618,40.2535607 51.9541594,39.9183247 51.8316533,39.6244191 C51.7091472,39.3328097 51.3716776,39.1927453 51.0758139,39.3144406 L48.9423589,40.1961573 C48.6464951,40.3155564 48.507809,40.6530886 48.6303151,40.9446981 C48.7204611,41.1651273 48.937736,41.3005994 49.1642567,41.3005994 C49.2382226,41.3005994 49.3121886,41.2845264 49.3838431,41.2546766 L51.5196095,40.375256 Z M53.6992932,12.1121015 C53.6992932,11.7952345 53.4404124,11.5380672 53.1214343,11.5380672 L50.8099988,11.5380672 C50.4910207,11.5380672 50.2321399,11.7952345 50.2321399,12.1121015 C50.2321399,12.4289685 50.4910207,12.6861358 50.8099988,12.6861358 L53.1214343,12.6861358 C53.4404124,12.6861358 53.6992932,12.4289685 53.6992932,12.1121015 L53.6992932,12.1121015 Z M54.3326265,35.8197195 C54.4528212,35.5281101 54.314135,35.192874 54.0182713,35.0711788 L51.8825049,34.1940543 C51.5866411,34.072359 51.2491715,34.2124234 51.1266655,34.5040328 C51.0064708,34.7979384 51.1451569,35.1331745 51.4410207,35.2548697 L53.5767871,36.1319942 C53.6484416,36.161844 53.724719,36.1756208 53.7963735,36.1756208 C54.0252056,36.1756208 54.2401691,36.0424448 54.3326265,35.8197195 L54.3326265,35.8197195 Z M55.8396825,24.6719727 C56.0662032,24.4469513 56.0662032,24.0841616 55.8396825,23.8614363 C55.6154732,23.6364148 55.247955,23.6364148 55.0237457,23.8614363 L53.3895608,25.4848054 C53.1630401,25.7075307 53.1630401,26.0726165 53.3895608,26.2953418 C53.5028212,26.4078526 53.650753,26.4629599 53.7986849,26.4629599 C53.9466168,26.4629599 54.0922372,26.4078526 54.2054976,26.2953418 L55.8396825,24.6719727 Z M55.8396825,21.0302989 C56.0662032,20.8075736 56.0662032,20.4424878 55.8396825,20.2197624 L54.2054976,18.5963933 C53.9812883,18.3713719 53.6137701,18.3713719 53.3895608,18.5963933 C53.1630401,18.8191187 53.1630401,19.1842045 53.3895608,19.4069298 L55.0237457,21.0302989 C55.1370061,21.1428097 55.284938,21.2002131 55.4328698,21.2002131 C55.5808017,21.2002131 55.7287336,21.1428097 55.8396825,21.0302989 L55.8396825,21.0302989 Z M56.6879793,30.4812002 L56.6879793,28.1850629 C56.6879793,27.8681959 56.4290985,27.6110285 56.1101204,27.6110285 C55.7888309,27.6110285 55.5322616,27.8681959 55.5322616,28.1850629 L55.5322616,30.4812002 C55.5322616,30.7980672 55.7888309,31.0552345 56.1101204,31.0552345 C56.4290985,31.0552345 56.6879793,30.7980672 56.6879793,30.4812002 L56.6879793,30.4812002 Z M35.3072007,1.20544914 C49.0070791,1.20544914 60.1551326,12.2797195 60.1551326,25.8889255 C60.1551326,39.5004277 49.0070791,50.5724019 35.3072007,50.5724019 C21.6050109,50.5724019 10.4592689,39.5004277 10.4592689,25.8889255 C10.4592689,12.2797195 21.6050109,1.20544914 35.3072007,1.20544914 L35.3072007,1.20544914 Z" id="Fill-43" fill="#FDB743"></path>
            <path d="M51.8315608,39.6243961 C51.9540669,39.9183017 51.8130693,40.2535378 51.519517,40.375233 L49.3837506,41.2546536 C49.3120961,41.2845034 49.2381302,41.3005764 49.1641642,41.3005764 C48.9376436,41.3005764 48.7203686,41.1651043 48.6302226,40.9446751 C48.5077165,40.6530657 48.6464027,40.3155335 48.9422664,40.1961343 L51.0757214,39.3144176 C51.3715852,39.1927223 51.7090547,39.3327867 51.8315608,39.6243961" id="Fill-44" fill="#FFFFFF"></path>
            <path d="M51.0503418,30.8830472 C51.1728479,31.1769528 51.0318504,31.5121888 50.7382981,31.6338841 L48.6025316,32.5133047 C48.5308771,32.5431545 48.4545998,32.5569313 48.3806338,32.5569313 C48.1541131,32.5569313 47.9391496,32.4237554 47.8466922,32.2033262 C47.7241861,31.9094206 47.8651837,31.5741845 48.158736,31.4524893 L50.2945024,30.5730687 C50.5903662,30.4513734 50.9278358,30.5914378 51.0503418,30.8830472" id="Fill-45" fill="#FFFFFF"></path>
            <path d="M50.5417798,19.2691616 C50.7659891,19.4918869 50.7659891,19.8546766 50.5417798,20.0796981 L48.9052835,21.7030672 C48.7943345,21.8155779 48.6464027,21.8706852 48.4984708,21.8706852 C48.3505389,21.8706852 48.2026071,21.8155779 48.0893467,21.7030672 C47.862826,21.4803418 47.862826,21.115256 48.0893467,20.8925307 L49.7235316,19.2691616 C49.9500523,19.0441401 50.3152591,19.0441401 50.5417798,19.2691616" id="Fill-46" fill="#FFFFFF"></path>
            <path d="M49.5825572,25.4847594 C49.8090779,25.7074848 49.8090779,26.0702745 49.5825572,26.2952959 L47.9483723,27.918665 C47.8351119,28.0311758 47.6894915,28.0885792 47.5415596,28.0885792 C47.3936277,28.0885792 47.2456959,28.0311758 47.1324355,27.918665 C46.9059148,27.6959397 46.9059148,27.3308539 47.1324355,27.1081285 L48.7666204,25.4847594 C48.9908297,25.259738 49.3583479,25.259738 49.5825572,25.4847594" id="Fill-47" fill="#FFFFFF"></path>
            <path d="M48.9053759,16.3002101 C49.1318966,16.5229354 49.1318966,16.8857251 48.9053759,17.1107466 C48.794427,17.2232573 48.6464951,17.2783646 48.4985633,17.2783646 C48.3506314,17.2783646 48.2026995,17.2232573 48.0894392,17.1107466 L46.4552543,15.4873775 C46.2287336,15.262356 46.2287336,14.8995663 46.4552543,14.676841 C46.6794635,14.4518195 47.0469818,14.4518195 47.271191,14.676841 L48.9053759,16.3002101 Z" id="Fill-48" fill="#FFFFFF"></path>
            <path d="M48.9053759,35.342123 C49.1318966,35.5648483 49.1318966,35.927638 48.9053759,36.1526594 L47.271191,37.7760285 C47.1579307,37.8885393 47.0123102,37.9436466 46.8643783,37.9436466 C46.7164465,37.9436466 46.5685146,37.8885393 46.4552543,37.7760285 C46.2287336,37.5533032 46.2287336,37.1882174 46.4552543,36.9654921 L48.0894392,35.342123 C48.3136484,35.1171015 48.6811667,35.1171015 48.9053759,35.342123" id="Fill-49" fill="#FFFFFF"></path>
            <polygon id="Fill-50" fill="#FFFFFF" points="47.6086375 98.87397 48.7643552 98.87397 48.7643552 98.2999356 47.6086375 98.2999356"></polygon>
            <polygon id="Fill-51" fill="#FFFFFF" points="47.6086375 98.2999356 48.7643552 98.2999356 48.7643552 58.1152361 47.6086375 58.1152361"></polygon>
            <polygon id="Fill-52" fill="#FFFFFF" points="47.6086375 58.1152361 48.7643552 58.1152361 48.7643552 57.5412017 47.6086375 57.5412017"></polygon>
            <polygon id="Fill-53" fill="#FFFFFF" points="48.7642859 56.9671903 48.7642859 57.5412247 47.6085681 57.5412247 47.6085681 58.115259 4.18362895 58.115259 4.18362895 56.9671903"></polygon>
            <path d="M47.6085681,98.873947 L47.6085681,99.4479813 L30.9107579,99.4479813 C30.9246265,99.2596981 30.9315608,99.0668225 30.9315608,98.873947 C30.9315608,98.6810715 30.9246265,98.4881959 30.9107579,98.2999127 L47.6085681,98.2999127 L47.6085681,98.873947 Z" id="Fill-54" fill="#FFFFFF"></path>
            <path d="M41.3330438,86.1625536 L41.3330438,82.0616524 L38.3605377,82.0616524 L38.3605377,65.4973176 L41.3330438,65.4973176 L41.3330438,61.3964163 L10.4591995,61.3964163 L10.4591995,65.4973176 L13.4317056,65.4973176 L13.4317056,82.0616524 L10.4591995,82.0616524 L10.4591995,86.1625536 L41.3330438,86.1625536 Z M47.6085912,58.1152361 L47.6085912,98.2999356 L30.910781,98.2999356 C30.6126058,94.1806652 27.1454526,90.9201502 22.9247713,90.9201502 C18.7017786,90.9201502 15.2346253,94.1806652 14.9364501,98.2999356 L4.18365207,98.2999356 L4.18365207,95.9211373 L4.18365207,95.347103 L4.18365207,58.1152361 L47.6085912,58.1152361 Z" id="Fill-55" fill="#FDB743"></path>
            <path d="M47.2711217,43.8538582 C47.4976423,44.0765835 47.4976423,44.4416693 47.2711217,44.6643946 C47.1578613,44.7769054 47.0122409,44.8320127 46.864309,44.8320127 C46.7163771,44.8320127 46.5684453,44.7769054 46.4551849,44.6643946 L44.821,43.0410255 C44.5944793,42.8160041 44.5944793,42.4532144 44.821,42.2304891 C45.0452092,42.0054676 45.4127275,42.0054676 45.6369367,42.2304891 L47.2711217,43.8538582 Z" id="Fill-56" fill="#FFFFFF"></path>
            <path d="M44.9596861,9.41179807 C45.1862068,9.63452339 45.1862068,9.99960923 44.9596861,10.2223345 C44.8464258,10.3348453 44.7008054,10.3899526 44.5528735,10.3899526 C44.4049416,10.3899526 44.2570097,10.3348453 44.1437494,10.2223345 L42.5095645,8.59896545 C42.2830438,8.37394399 42.2830438,8.01115429 42.5095645,7.78842897 C42.7337737,7.56340751 43.101292,7.56340751 43.3255012,7.78842897 L44.9596861,9.41179807 Z" id="Fill-57" fill="#FFFFFF"></path>
            <path d="M44.2825049,38.5889071 C44.5090255,38.8116324 44.5090255,39.1767182 44.2825049,39.3994436 C44.171556,39.5119543 44.0236241,39.5693577 43.8756922,39.5693577 C43.7277603,39.5693577 43.5798285,39.5119543 43.4665681,39.3994436 L41.8323832,37.7760745 C41.6058625,37.5533491 41.6058625,37.1882633 41.8323832,36.965538 C42.0565925,36.7405165 42.4241107,36.7405165 42.64832,36.965538 L44.2825049,38.5889071 Z" id="Fill-58" fill="#FFFFFF"></path>
            <path d="M43.9750608,25.8889485 C43.9750608,21.1428326 40.0849148,17.2784335 35.3071776,17.2784335 C30.527129,17.2784335 26.6392944,21.1428326 26.6392944,25.8889485 C26.6392944,30.6373605 30.527129,34.4994635 35.3071776,34.4994635 C40.0849148,34.4994635 43.9750608,30.6373605 43.9750608,25.8889485 M35.3071776,16.1303648 C40.722871,16.1303648 45.1307786,20.5090987 45.1307786,25.8889485 C45.1307786,31.2710944 40.722871,35.6475322 35.3071776,35.6475322 C29.8891727,35.6475322 25.4835766,31.2710944 25.4835766,25.8889485 C25.4835766,20.5090987 29.8891727,16.1303648 35.3071776,16.1303648" id="Fill-59" fill="#FFFFFF"></path>
            <polygon id="Fill-60" fill="#FFFFFF" points="41.3330438 82.0616753 41.3330438 86.1625766 10.4591995 86.1625766 10.4591995 82.0616753 13.4317056 82.0616753 13.4317056 82.6357097 13.4317056 83.209744 11.6149173 83.209744 11.6149173 85.0145079 40.177326 85.0145079 40.177326 83.209744 37.20482 83.209744 37.20482 82.6357097 38.3605377 82.6357097 38.3605377 82.0616753"></polygon>
            <polygon id="Fill-61" fill="#FFFFFF" points="41.3330438 61.3964393 41.3330438 65.4973406 38.3605377 65.4973406 38.3605377 64.9233062 38.3605377 64.3492719 40.177326 64.3492719 40.177326 62.5445079 11.6149173 62.5445079 11.6149173 64.3492719 14.5874234 64.3492719 14.5874234 64.9233062 13.4317056 64.9233062 13.4317056 65.4973406 10.4591995 65.4973406 10.4591995 61.3964393"></polygon>
            <path d="M29.4730681,51.0638212 L41.1388832,51.0638212 C39.264309,51.4931989 37.311146,51.7205165 35.3071314,51.7205165 C33.3031168,51.7205165 31.3499538,51.4931989 29.4730681,51.0638212" id="Fill-62" fill="#FFFFFF"></path>
            <path d="M40.3368151,9.41179807 C40.5633358,9.63452339 40.5633358,9.99731309 40.3368151,10.2223345 L38.7026302,11.8457036 C38.5893698,11.9582144 38.4437494,12.0156178 38.2958175,12.0156178 C38.1478856,12.0156178 37.9999538,11.9582144 37.8866934,11.8457036 C37.6601727,11.6229783 37.6601727,11.2578925 37.8866934,11.0351672 L39.5208783,9.41179807 C39.7450876,9.18677661 40.1126058,9.18677661 40.3368151,9.41179807" id="Fill-63" fill="#FFFFFF"></path>
            <polygon id="Fill-64" fill="#FDB743" points="40.177326 83.209744 40.177326 85.0145079 11.6149173 85.0145079 11.6149173 83.209744 13.4317056 83.209744 37.20482 83.209744"></polygon>
            <polygon id="Fill-65" fill="#FDB743" points="40.177326 62.5445079 40.177326 64.3492719 38.3605377 64.3492719 14.5874234 64.3492719 11.6149173 64.3492719 11.6149173 62.5445079"></polygon>
            <path d="M39.6596338,45.4773191 C39.8861545,45.7000444 39.8861545,46.0651303 39.6596338,46.2878556 C39.5486849,46.4003663 39.400753,46.4577697 39.2528212,46.4577697 C39.1048893,46.4577697 38.9569574,46.4003663 38.8436971,46.2878556 L37.2095122,44.6644865 C36.9829915,44.4417612 36.9829915,44.0766753 37.2095122,43.85395 C37.4337214,43.6289285 37.8012397,43.6289285 38.0254489,43.85395 L39.6596338,45.4773191 Z" id="Fill-66" fill="#FFFFFF"></path>
            <polygon id="Fill-67" fill="#FFFFFF" points="37.2048662 82.6356867 38.3605839 82.6356867 38.3605839 82.0616524 37.2048662 82.0616524"></polygon>
            <polygon id="Fill-68" fill="#FFFFFF" points="37.2048662 82.0616524 38.3605839 82.0616524 38.3605839 65.4973176 37.2048662 65.4973176"></polygon>
            <polygon id="Fill-69" fill="#FFFFFF" points="37.2048662 65.4973176 38.3605839 65.4973176 38.3605839 64.9232833 37.2048662 64.9232833"></polygon>
            <polygon id="Fill-70" fill="#FFFFFF" points="38.3605839 64.3492489 38.3605839 64.9232833 37.2048662 64.9232833 37.2048662 65.4973176 14.5874696 65.4973176 14.5874696 64.9232833 14.5874696 64.3492489"></polygon>
            <path d="M38.196472,37.3696352 L38.196472,39.6657725 C38.196472,39.9826395 37.9375912,40.2398069 37.6186131,40.2398069 C37.2973236,40.2398069 37.0407543,39.9826395 37.0407543,39.6657725 L37.0407543,37.3696352 C37.0407543,37.0527682 37.2973236,36.7956009 37.6186131,36.7956009 C37.9375912,36.7956009 38.196472,37.0527682 38.196472,37.3696352" id="Fill-71" fill="#FFFFFF"></path>
            <polygon id="Fill-72" fill="#FFFFFF" points="37.2048662 82.6357097 37.2048662 83.209744 13.4317518 83.209744 13.4317518 82.6357097 14.5874696 82.6357097 14.5874696 82.0616753 37.2048662 82.0616753"></polygon>
            <polygon id="Fill-73" fill="#FDB743" points="14.5874696 82.0616524 37.2048662 82.0616524 37.2048662 65.4973176 14.5874696 65.4973176"></polygon>
            <path d="M35.8850365,5.22371245 L35.8850365,7.51984979 C35.8850365,7.83671674 35.6261557,8.09388412 35.3071776,8.09388412 C34.9858881,8.09388412 34.7293187,7.83671674 34.7293187,7.51984979 L34.7293187,5.22371245 C34.7293187,4.90684549 34.9858881,4.64967811 35.3071776,4.64967811 C35.6261557,4.64967811 35.8850365,4.90684549 35.8850365,5.22371245" id="Fill-74" fill="#FFFFFF"></path>
            <path d="M35.3071776,51.7204936 L35.3071776,52.211867 L4.1836983,52.211867 L4.1836983,56.9671674 L3.60583942,56.9671674 L3.60583942,58.1152361 L3.02798054,58.1152361 L3.02798054,51.0637983 L29.4731144,51.0637983 C31.35,51.493176 33.303163,51.7204936 35.3071776,51.7204936" id="Fill-75" fill="#FFFFFF"></path>
            <path d="M33.0049878,46.6551916 C33.2892944,46.795256 33.4048662,47.1419727 33.2615572,47.4243976 C33.159854,47.6264577 32.9564477,47.7412646 32.7437956,47.7412646 C32.6582725,47.7412646 32.5681265,47.7228955 32.4872263,47.681565 L30.4208029,46.6505994 C30.1341849,46.510535 30.0186131,46.1638182 30.1619221,45.8813933 C30.3052311,45.5966723 30.6519465,45.4841616 30.9385645,45.6265221 L33.0049878,46.6551916 Z" id="Fill-76" fill="#FFFFFF"></path>
            <path d="M32.7253273,38.5889071 C32.9518479,38.8116324 32.9518479,39.1767182 32.7253273,39.3994436 C32.6143783,39.5119543 32.4664465,39.5693577 32.3185146,39.5693577 C32.1705827,39.5693577 32.0226509,39.5119543 31.9093905,39.3994436 L30.2752056,37.7760745 C30.0486849,37.5533491 30.0486849,37.1882633 30.2752056,36.965538 C30.4994148,36.7405165 30.8669331,36.7405165 31.0911423,36.965538 L32.7253273,38.5889071 Z" id="Fill-77" fill="#FFFFFF"></path>
            <path d="M32.6929209,10.4795938 C32.7923127,10.7826839 32.6305122,11.1062097 32.3277141,11.2074693 L30.1341618,11.9307526 C30.071753,11.9491217 30.0116557,11.9606024 29.9515584,11.9606024 C29.7088577,11.9606024 29.482337,11.8067612 29.4037482,11.5654371 C29.302045,11.2648727 29.4661569,10.9411174 29.768955,10.8400873 L31.9625073,10.1168041 C32.2653054,10.0155444 32.5935292,10.1810959 32.6929209,10.4795938" id="Fill-78" fill="#FFFFFF"></path>
            <path d="M30.9108273,98.2999127 C30.9246959,98.4881959 30.9316302,98.6810715 30.9316302,98.873947 C30.9316302,99.0668225 30.9246959,99.2596981 30.9108273,99.4479813 L30.3537713,99.4479813 L30.3537713,98.873947 L30.3537713,98.2999127 L30.9108273,98.2999127 Z" id="Fill-79" fill="#FFFFFF"></path>
            <path d="M30.9108273,98.2999127 L30.3537713,98.2999127 L30.3537713,98.873947 L29.7759124,98.873947 C29.7759124,95.1197624 26.7017032,92.0681959 22.9248175,92.0681959 C19.1456204,92.0681959 16.0714112,95.1197624 16.0714112,98.873947 L15.4935523,98.873947 L15.4935523,98.2999127 L14.9364964,98.2999127 C15.2346715,94.1806423 18.7018248,90.9201273 22.9248175,90.9201273 C27.1454988,90.9201273 30.6126521,94.1806423 30.9108273,98.2999127" id="Fill-80" fill="#FFFFFF"></path>
            <path d="M30.3537251,99.4479813 L30.910781,99.4479813 C30.6126058,103.567252 27.1454526,106.827767 22.9247713,106.827767 C18.7017786,106.827767 15.2346253,103.567252 14.9364501,99.4479813 L15.4935061,99.4479813 L15.4935061,98.873947 L16.071365,98.873947 C16.071365,102.628132 19.1455742,105.679698 22.9247713,105.679698 C26.7016569,105.679698 29.7758662,102.628132 29.7758662,98.873947 L30.3537251,98.873947 L30.3537251,99.4479813 Z" id="Fill-81" fill="#FFFFFF"></path>
            <path d="M29.4800487,41.2661114 C29.7666667,41.4084719 29.879927,41.7551886 29.7389294,42.0376135 L28.7034063,44.0903603 C28.6017032,44.2924204 28.3959854,44.4072273 28.1856448,44.4072273 C28.0978102,44.4072273 28.0099757,44.3888582 27.926764,44.3452315 C27.6424574,44.2051672 27.5268856,43.8584504 27.6678832,43.5760255 L28.7057178,41.5232788 C28.8467153,41.2408539 29.1957421,41.126047 29.4800487,41.2661114" id="Fill-82" fill="#FFFFFF"></path>
            <path d="M28.9207044,6.61519464 C29.0200961,6.91598863 28.8559842,7.24204013 28.5531861,7.34077403 L26.3596338,8.06635343 C26.2995365,8.08472253 26.2394392,8.09390708 26.1793418,8.09390708 C25.9366411,8.09390708 25.7101204,7.94236202 25.6292202,7.7012676 C25.5298285,7.40047361 25.6939404,7.07671824 25.9967384,6.9756882 L28.1902908,6.25240494 C28.4930888,6.15137489 28.8190012,6.31440064 28.9207044,6.61519464" id="Fill-83" fill="#FFFFFF"></path>
            <path d="M26.4728248,98.873947 C26.4728248,96.9291187 24.8825572,95.34708 22.9247713,95.34708 C20.9669854,95.34708 19.3744063,96.9291187 19.3744063,98.873947 C19.3744063,100.818775 20.9669854,102.400814 22.9247713,102.400814 C24.8825572,102.400814 26.4728248,100.818775 26.4728248,98.873947 M22.9247713,92.0681959 C26.7016569,92.0681959 29.7758662,95.1197624 29.7758662,98.873947 C29.7758662,102.628132 26.7016569,105.679698 22.9247713,105.679698 C19.1455742,105.679698 16.071365,102.628132 16.071365,98.873947 C16.071365,95.1197624 19.1455742,92.0681959 22.9247713,92.0681959" id="Fill-84" fill="#FDB743"></path>
            <path d="M27.3373479,14.2290942 C27.4390511,14.5298882 27.2749392,14.8536436 26.9721411,14.9546736 C26.9097324,14.9730427 26.849635,14.9822273 26.7895377,14.9822273 C26.546837,14.9822273 26.3203163,14.8306822 26.2417275,14.5895878 L25.5113139,12.4105534 C25.4119221,12.1097594 25.5760341,11.7860041 25.8788321,11.684974 C26.1816302,11.5862401 26.5075426,11.7492659 26.6092457,12.0500599 L27.3373479,14.2290942 Z" id="Fill-85" fill="#FFFFFF"></path>
            <path d="M26.0753273,17.22103 C26.3596338,17.3633906 26.4752056,17.7078112 26.3318966,17.9925322 C26.2301934,18.1922961 26.0267871,18.3093991 25.814135,18.3093991 C25.7286119,18.3093991 25.6384659,18.2887339 25.5575657,18.2474034 L23.4911423,17.2187339 C23.2045243,17.0763734 23.0889526,16.7319528 23.2322616,16.4472318 C23.3755706,16.1648069 23.7222859,16.05 24.0089039,16.1923605 L26.0753273,17.22103 Z" id="Fill-86" fill="#FFFFFF"></path>
            <path d="M25.7910207,39.9343976 C26.0175414,40.157123 26.0175414,40.5199127 25.7910207,40.7449341 L24.1568358,42.3683032 C24.0435754,42.4808139 23.897955,42.5359212 23.7500231,42.5359212 C23.6020912,42.5359212 23.4541594,42.4808139 23.340899,42.3683032 C23.1143783,42.1455779 23.1143783,41.7804921 23.340899,41.5577667 L24.9750839,39.9343976 C25.1992932,39.7093762 25.5668114,39.7093762 25.7910207,39.9343976" id="Fill-87" fill="#FFFFFF"></path>
            <path d="M25.3171071,98.873947 C25.3171071,97.5628526 24.244601,96.4951487 22.9247713,96.4951487 C21.6049416,96.4951487 20.5301241,97.5628526 20.5301241,98.873947 C20.5301241,100.185041 21.6049416,101.252745 22.9247713,101.252745 C24.244601,101.252745 25.3171071,100.185041 25.3171071,98.873947 M22.9247713,95.34708 C24.8825572,95.34708 26.4728248,96.9291187 26.4728248,98.873947 C26.4728248,100.818775 24.8825572,102.400814 22.9247713,102.400814 C20.9669854,102.400814 19.3744063,100.818775 19.3744063,98.873947 C19.3744063,96.9291187 20.9669854,95.34708 22.9247713,95.34708" id="Fill-88" fill="#FFFFFF"></path>
            <path d="M22.9247482,96.4951717 C24.2445779,96.4951717 25.3170839,97.5628755 25.3170839,98.87397 C25.3170839,100.185064 24.2445779,101.252768 22.9247482,101.252768 C21.6049185,101.252768 20.530101,100.185064 20.530101,98.87397 C20.530101,97.5628755 21.6049185,96.4951717 22.9247482,96.4951717" id="Fill-89" fill="#FDB743"></path>
            <path d="M24.3278589,32.7773605 L24.3278589,35.0734979 C24.3278589,35.3903648 24.0689781,35.6475322 23.75,35.6475322 C23.4287105,35.6475322 23.1721411,35.3903648 23.1721411,35.0734979 L23.1721411,32.7773605 C23.1721411,32.4604936 23.4287105,32.2033262 23.75,32.2033262 C24.0689781,32.2033262 24.3278589,32.4604936 24.3278589,32.7773605" id="Fill-90" fill="#FFFFFF"></path>
            <path d="M21.8684684,11.9329569 C21.9678601,12.2337509 21.8037482,12.5575062 21.5009501,12.6585363 L19.3073978,13.3818195 C19.2473005,13.4024848 19.1872032,13.4116693 19.1271058,13.4116693 C18.8844051,13.4116693 18.6578844,13.2578281 18.5769842,13.0167337 C18.4775925,12.7159397 18.6417044,12.3921843 18.9445024,12.2911543 L21.1380547,11.567871 C21.4408528,11.4691371 21.7667652,11.6321629 21.8684684,11.9329569" id="Fill-91" fill="#FFFFFF"></path>
            <path d="M21.6465706,30.1138182 C21.8106825,30.3847624 21.7205365,30.7383676 21.4477871,30.9013933 L19.462264,32.0793118 C19.3698066,32.132123 19.2681034,32.1596766 19.1664002,32.1596766 C18.9699282,32.1596766 18.7780791,32.0586466 18.671753,31.8795479 C18.5076411,31.6086036 18.5954757,31.2549985 18.8705365,31.0919727 L20.8537482,29.9140543 C21.128809,29.7533247 21.4824586,29.8405779 21.6465706,30.1138182" id="Fill-92" fill="#FFFFFF"></path>
            <path d="M19.7581509,22.8947854 C20.0424574,23.0371459 20.1580292,23.3838627 20.0147202,23.6662876 C19.9153285,23.8660515 19.7096107,23.9831545 19.4992701,23.9831545 C19.4114355,23.9831545 19.323601,23.9624893 19.2403893,23.9211588 L17.1739659,22.8924893 C16.8896594,22.7501288 16.7740876,22.4057082 16.9173966,22.1232833 C17.0583942,21.8385622 17.4074209,21.7237554 17.6917275,21.8661159 L19.7581509,22.8947854 Z" id="Fill-93" fill="#FFFFFF"></path>
            <path d="M19.6679586,37.1744406 C19.7789075,37.4706423 19.6240414,37.8012861 19.3235547,37.9092045 C19.2588345,37.934462 19.1918029,37.9436466 19.1270827,37.9436466 C18.8913163,37.9436466 18.6694185,37.8012861 18.5838954,37.56708 L17.791073,35.4110071 C17.6801241,35.1125092 17.8349903,34.7841616 18.1354769,34.673947 C18.4336521,34.5660285 18.7664988,34.7198697 18.8751363,35.0160715 L19.6679586,37.1744406 Z" id="Fill-94" fill="#FFFFFF"></path>
            <path d="M17.2455973,27.2804307 C17.3449891,27.5812247 17.1808771,27.9072762 16.8780791,28.0060101 L14.6845268,28.7315895 C14.6244294,28.7499586 14.5643321,28.7591431 14.5042348,28.7591431 C14.2615341,28.7591431 14.0350134,28.6075981 13.9541131,28.3665036 C13.8547214,28.0657097 14.0188333,27.7419543 14.3216314,27.6409242 L16.5151837,26.917641 C16.8179818,26.8166109 17.1438942,26.9796367 17.2455973,27.2804307" id="Fill-95" fill="#FFFFFF"></path>
            <path d="M16.2332117,17.5080472 C16.5198297,17.6504077 16.6354015,17.9948283 16.4920925,18.2795494 L15.4565693,20.3322961 C15.3548662,20.5320601 15.1514599,20.6491631 14.9388078,20.6491631 C14.8509732,20.6491631 14.7631387,20.6284979 14.679927,20.5871674 C14.3956204,20.4448069 14.2800487,20.1003863 14.4233577,19.8179614 L15.4588808,17.7652146 C15.6021898,17.4804936 15.9489051,17.3656867 16.2332117,17.5080472" id="Fill-96" fill="#FFFFFF"></path>
            <path d="M15.4935061,98.873947 L15.4935061,99.4479813 L14.9364501,99.4479813 C14.9225815,99.2596981 14.9156472,99.0668225 14.9156472,98.873947 C14.9156472,98.6810715 14.9225815,98.4881959 14.9364501,98.2999127 L15.4935061,98.2999127 L15.4935061,98.873947 Z" id="Fill-97" fill="#FFFFFF"></path>
            <path d="M4.18372141,98.2999127 L14.9365195,98.2999127 C14.9226509,98.4881959 14.9157165,98.6810715 14.9157165,98.873947 C14.9157165,99.0668225 14.9226509,99.2596981 14.9365195,99.4479813 L4.18372141,99.4479813 L4.18372141,98.2999127 Z" id="Fill-98" fill="#FFFFFF"></path>
            <polygon id="Fill-99" fill="#FFFFFF" points="13.4317518 82.6356867 14.5874696 82.6356867 14.5874696 82.0616524 13.4317518 82.0616524"></polygon>
            <polygon id="Fill-100" fill="#FFFFFF" points="13.4317518 82.0616524 14.5874696 82.0616524 14.5874696 65.4973176 13.4317518 65.4973176"></polygon>
            <polygon id="Fill-101" fill="#FFFFFF" points="13.4317518 65.4973176 14.5874696 65.4973176 14.5874696 64.9232833 13.4317518 64.9232833"></polygon>
            <polygon id="Fill-102" fill="#FFFFFF" points="3.60583942 99.4480043 4.1836983 99.4480043 4.1836983 98.2999356 3.60583942 98.2999356"></polygon>
            <path d="M1.21350365,98.2999356 L3.02798054,98.2999356 L3.02798054,96.4951717 L1.21350365,96.4951717 L1.21350365,98.2999356 Z M4.1836983,95.9211373 L4.1836983,98.2999356 L3.60583942,98.2999356 L3.60583942,99.4480043 L0.0577858881,99.4480043 L0.0577858881,95.347103 L3.02798054,95.347103 L3.02798054,95.9211373 L4.1836983,95.9211373 Z" id="Fill-103" fill="#FFFFFF"></path>
            <polygon id="Fill-104" fill="#FFFFFF" points="3.02798054 95.9211373 4.1836983 95.9211373 4.1836983 95.347103 3.02798054 95.347103"></polygon>
            <polygon id="Fill-105" fill="#FFFFFF" points="4.18372141 58.115259 4.18372141 95.347126 3.02800365 95.347126 3.02800365 58.115259 3.60586253 58.115259"></polygon>
            <polygon id="Fill-106" fill="#FFFFFF" points="3.60583942 58.1152361 4.1836983 58.1152361 4.1836983 56.9671674 3.60583942 56.9671674"></polygon>
        </g>
    </g>
</svg>