<?xml version="1.0" encoding="utf-8"?>
<!-- Generator: Adobe Illustrator 16.0.4, SVG Export Plug-In . SVG Version: 6.00 Build 0)  -->
<!DOCTYPE svg PUBLIC "-//W3C//DTD SVG 1.1//EN" "http://www.w3.org/Graphics/SVG/1.1/DTD/svg11.dtd">
<svg version="1.1" id="Layer_1" xmlns="http://www.w3.org/2000/svg" xmlns:xlink="http://www.w3.org/1999/xlink" x="0px" y="0px"
	 width="2878px" height="77px" viewBox="0 0 2878 77" enable-background="new 0 0 2878 77" xml:space="preserve">
<title>ground</title>
<desc>Created with Sketch.</desc>
<path id="Fill-1" fill="#FFFFFF" d="M60.366,77c-2.25,0-3.857-1.376-5.006-2.576c-0.992-1.035-2.365-2.224-4.193-2.224
	s-3.201,1.188-4.192,2.224C45.826,75.624,44.218,77,41.969,77c-2.25,0-3.857-1.376-5.006-2.576
	c-0.992-1.035-2.365-2.224-4.193-2.224s-3.201,1.188-4.193,2.224C27.428,75.624,25.821,77,23.571,77
	c-2.25,0-3.857-1.376-5.006-2.576c-0.992-1.035-2.365-2.224-4.192-2.224c-1.828,0-3.201,1.188-4.193,2.224
	C9.031,75.624,7.424,77,5.174,77s-3.857-1.376-5.006-2.576c-0.225-0.234-0.225-0.614,0-0.848c0.225-0.235,0.589-0.235,0.813,0
	C1.974,74.611,3.347,75.8,5.174,75.8s3.201-1.188,4.193-2.224c1.149-1.2,2.756-2.576,5.006-2.576c2.25,0,3.857,1.376,5.006,2.576
	c0.992,1.035,2.365,2.224,4.192,2.224c1.828,0,3.201-1.188,4.193-2.224C28.913,72.376,30.52,71,32.77,71
	c2.25,0,3.857,1.376,5.006,2.576c0.992,1.035,2.365,2.224,4.193,2.224c1.828,0,3.201-1.188,4.192-2.224
	C47.31,72.376,48.917,71,51.167,71c2.25,0,3.857,1.376,5.006,2.576c0.992,1.035,2.365,2.224,4.193,2.224s3.201-1.188,4.193-2.224
	c1.149-1.2,2.756-2.576,5.006-2.576h2807.861c0.316,0,0.574,0.269,0.574,0.6c0,0.332-0.258,0.601-0.574,0.601H69.564
	c-1.828,0-3.201,1.188-4.193,2.224C64.223,75.624,62.615,77,60.366,77"/>
</svg>
