<?xml version="1.0" encoding="UTF-8" standalone="no"?>
<svg width="79px" height="42px" viewBox="0 0 79 42" version="1.1" xmlns="http://www.w3.org/2000/svg" xmlns:xlink="http://www.w3.org/1999/xlink">
    <!-- Generator: Sketch 39.1 (31720) - http://www.bohemiancoding.com/sketch -->
    <title>Group 7</title>
    <desc>Created with Sketch.</desc>
    <defs>
        <polygon id="path-1" points="78.2082467 13.16796 78.2082467 0.02216 0.172879279 0.02216 0.172879279 13.16796 78.2082467 13.16796"></polygon>
    </defs>
    <g id="Page-1" stroke="none" stroke-width="1" fill="none" fill-rule="evenodd">
        <g id="Group-7">
            <polyline id="Fill-1" fill="#FBB644" points="18.249316 8.37656 11.9179529 0.99996 2.42040748 0.99996 5.58618919 13.64556"></polyline>
            <polygon id="Fill-2" fill="#FFFFFF" points="5.10055703 13.7668 1.77915994 0.5 12.1481114 0.5 18.6294822 8.0512 17.8692299 8.702 11.6876742 1.5 3.06173514 1.5 6.07210173 13.5242"></polygon>
            <polyline id="Fill-3" fill="#FBB644" points="18.249316 33.66796 11.9179529 41.04456 2.42040748 41.04456 5.58618919 28.39876"></polyline>
            <polygon id="Fill-4" fill="#FFFFFF" points="12.1481915 41.54454 1.77903978 41.54454 5.10063714 28.27754 6.07198157 28.52014 3.06161497 40.54454 11.687554 40.54454 17.8691098 33.34254 18.629362 33.99334"></polygon>
            <polyline id="Fill-5" fill="#FBB644" points="54.3320775 37.58204 52.0176742 41.04444 41.4654691 41.04444 39.3545474 37.58204"></polyline>
            <polygon id="Fill-6" fill="#FFFFFF" points="52.2854849 41.54454 41.1841197 41.54454 38.9267954 37.84194 39.7821793 37.32214 41.7466983 40.54454 51.7499437 40.54454 53.915541 37.30454 54.7484939 37.85954"></polygon>
            <path d="M78.3991684,21.02226 C78.3991684,37.88286 53.9557367,37.88286 44.6308302,37.88286 C35.306124,37.88286 1.36514692,33.66806 1.36514692,21.02226 C1.36514692,8.37646 35.3059238,4.16126 44.6308302,4.16126 C53.9557367,4.16126 78.3991684,4.16126 78.3991684,21.02226 L78.3991684,21.02226 Z" id="Fill-7" fill="#FBB644"></path>
            <path d="M44.6307501,4.66132 C40.1647688,4.66132 29.4289095,5.65772 19.6331514,8.33212 C11.5277328,10.54452 1.86596008,14.54232 1.86596008,21.02232 C1.86596008,27.50212 11.5279331,31.49972 19.6333516,33.71232 C29.4289095,36.38632 40.1647688,37.38272 44.6307501,37.38272 C49.1856545,37.38272 57.6641895,37.38272 64.8723662,35.29512 C73.5159296,32.79152 77.8983953,27.98952 77.8983953,21.02232 C77.8983953,14.05492 73.5159296,9.25272 64.8723662,6.74912 C57.6641895,4.66132 49.1856545,4.66132 44.6307501,4.66132 M44.6307501,38.38272 C40.1126967,38.38272 29.2592747,37.37672 19.369186,34.67692 C10.927502,32.37272 0.864574082,28.13292 0.864574082,21.02232 C0.864574082,17.91612 2.77401691,15.09412 6.54002938,12.63432 C9.620493,10.62252 13.9368672,8.85012 19.369186,7.36732 C29.259475,4.66732 40.1126967,3.66132 44.6307501,3.66132 C54.0033225,3.66132 78.8997813,3.66132 78.8997813,21.02232 C78.8997813,38.38272 54.0033225,38.38272 44.6307501,38.38272" id="Fill-9" fill="#FFFFFF"></path>
            <path d="M78.8998614,21.02226 L77.8984754,21.02226 C77.8984754,16.04266 72.134097,13.16026 67.2986043,11.61906 C61.9101462,9.90166 54.6198559,8.87646 47.7966119,8.87646 C37.5073708,8.87646 26.2075308,10.05366 17.5693749,12.02546 C7.44275884,14.33686 1.86583992,17.53206 1.86583992,21.02226 L0.864453915,21.02226 C0.864453915,18.18946 3.72401178,14.15986 17.3462661,11.05066 C26.0533174,9.06306 37.4366729,7.87646 47.7966119,7.87646 C54.7173909,7.87646 62.1216389,8.91946 67.6030256,10.66646 C74.9934546,13.02186 78.8998614,16.60266 78.8998614,21.02226" id="Fill-11" fill="#FFFFFF"></path>
            <g id="Group-15" transform="translate(0.691615, 21.000000)">
                <mask id="mask-2" fill="white">
                    <use xlink:href="#path-1"></use>
                </mask>
                <g id="Clip-14"></g>
                <path d="M47.1050373,13.16796 C36.7450983,13.16796 25.3617428,11.98136 16.6546915,9.99396 C9.13588482,8.27776 0.172879279,5.15456 0.172879279,0.02216 L1.17426528,0.02216 C1.17426528,3.51256 6.7511842,6.70756 16.8778003,9.01916 C25.5159562,10.99076 36.8157961,12.16796 47.1050373,12.16796 C53.9280809,12.16796 61.2185716,11.14276 66.6070297,9.42536 C71.4425224,7.88416 77.2069008,5.00196 77.2069008,0.02216 L78.2082868,0.02216 C78.2082868,4.44176 74.30188,8.02256 66.911451,10.37816 C61.4300643,12.12496 54.0258162,13.16796 47.1050373,13.16796" id="Fill-13" fill="#FFFFFF" mask="url(#mask-2)"></path>
            </g>
            <path d="M43.7623682,30.0045 C37.1840633,30.0045 28.4045116,29.6463 20.5694673,28.7651 C8.50476875,27.4079 1.8836045,25.2105 0.890229591,22.2341 L1.84014435,21.9177 C3.6720799,27.4061 32.2806766,29.3841 47.7827327,28.9529 C69.7889912,28.3373 75.8317549,24.6721 77.4750293,22.5421 L78.2683273,23.1523 C75.2435407,27.0727 64.4269697,29.4877 47.8105712,29.9525 C46.5952892,29.9865 45.233204,30.0045 43.7623682,30.0045" id="Fill-16" fill="#FFFFFF"></path>
            <path d="M1.84018441,21.23126 L0.890269647,20.91486 C1.88364456,17.93826 8.5048088,15.74106 20.5695073,14.38386 C30.1569772,13.30526 41.1594055,13.01026 47.8106113,13.19626 C64.4268095,13.66106 75.2435808,16.07626 78.2683674,19.99646 L77.4750694,20.60666 C75.8315947,18.47686 69.788831,14.81146 47.7827728,14.19586 C32.2811172,13.76246 3.67232024,15.74246 1.84018441,21.23126" id="Fill-18" fill="#FFFFFF"></path>
            <polygon id="Fill-20" fill="#FFFFFF" points="1.36514692 21.8382 77.3439078 21.8382 77.3439078 20.8382 1.36514692 20.8382"></polygon>
        </g>
    </g>
</svg>